<svg xmlns="http://www.w3.org/2000/svg" width="376.602" height="111.356">
  <path d="M-2666.114-235.339h841.89v595.28h-841.89z"/>
  <path fill="none" stroke="#000" stroke-width="2" stroke-miterlimit="10" d="M-1593.817-146.476h435.118v102.822h-435.118z"/>
  <g fill="#FFF">
    <path d="M-2376.441 55.72l-20.152-42.157-19.283 42.157s8.42-4.733 19.986-4.733c11.57-.001 19.449 4.733 19.449 4.733zM-2396.432 58.507c-19.537 0-35.387 15.844-35.387 35.381 0 19.541 15.85 35.387 35.387 35.387 19.547 0 35.383-15.846 35.383-35.387 0-19.537-15.836-35.381-35.383-35.381zm-15.062 53.055a7.77 7.77 0 0 1-7.763-13.462c3.703-2.148 8.461-.872 10.604 2.845a7.766 7.766 0 0 1-2.841 10.617zm2.84-24.727c-2.143 3.718-6.9 4.992-10.604 2.846a7.772 7.772 0 0 1-2.852-10.614 7.767 7.767 0 0 1 10.615-2.847 7.761 7.761 0 0 1 2.841 10.615zm12.222 36.705a7.771 7.771 0 0 1-7.77-7.771 7.768 7.768 0 0 1 7.77-7.771 7.772 7.772 0 0 1 0 15.542zm0-43.757c-4.295 0-7.77-3.479-7.77-7.772s3.475-7.772 7.77-7.772c4.299 0 7.77 3.479 7.77 7.772s-3.471 7.772-7.77 7.772zm25.672 28.931c-2.139 3.719-6.895 4.992-10.609 2.848a7.774 7.774 0 0 1-2.848-10.617 7.778 7.778 0 0 1 10.623-2.845 7.76 7.76 0 0 1 2.834 10.614zm-2.834-19.033a7.777 7.777 0 0 1-10.623-2.846c-2.145-3.717-.869-8.466 2.848-10.615 3.715-2.146 8.471-.869 10.609 2.847a7.761 7.761 0 0 1-2.834 10.614z"/>
    <path d="M-2348.035 78.219a45.263 45.263 0 0 0-2.336-5.691c-5.234-10.637-39.008-78.971-39.008-78.971l-6.779-13.703-6.773 13.703s-33.66 68.083-39.02 78.958c-3.209 6.516-4.84 13.785-4.84 21.609 0 27.915 22.713 50.625 50.633 50.625 27.914 0 50.627-22.71 50.627-50.63-.006-5.604-.846-10.931-2.504-15.9zm-48.123 58.973c-23.783 0-43.076-19.284-43.076-43.068 0-6.532 1.352-12.771 4.061-18.265 5.357-10.88 39.016-78.951 39.016-78.951s33.768 68.323 39.002 78.955c2.709 5.498 4.059 11.731 4.066 18.261-.001 23.784-19.288 43.068-43.069 43.068z"/>
  </g>
  <g fill="#ED1C24">
    <path d="M-2094.447 58.508c-19.537 0-35.387 15.843-35.387 35.379 0 19.543 15.85 35.39 35.387 35.39 19.547 0 35.383-15.847 35.383-35.39 0-19.536-15.836-35.379-35.383-35.379zm-15.063 53.053c-3.715 2.146-8.467.872-10.615-2.848a7.768 7.768 0 0 1 2.852-10.612c3.703-2.148 8.461-.873 10.604 2.845a7.764 7.764 0 0 1-2.841 10.615zm2.84-24.726c-2.143 3.718-6.9 4.993-10.604 2.848a7.773 7.773 0 0 1-2.852-10.615 7.768 7.768 0 0 1 10.615-2.848 7.761 7.761 0 0 1 2.841 10.615zm12.223 36.708a7.773 7.773 0 0 1 0-15.545 7.774 7.774 0 0 1 7.77 7.773c-.001 4.287-3.483 7.772-7.77 7.772zm0-43.76a7.769 7.769 0 0 1-7.771-7.771 7.77 7.77 0 0 1 7.771-7.774 7.766 7.766 0 0 1 7.77 7.774 7.766 7.766 0 0 1-7.77 7.771zm25.672 28.93c-2.139 3.72-6.895 4.993-10.609 2.848a7.772 7.772 0 1 1 7.775-13.46 7.76 7.76 0 0 1 2.834 10.612zm-2.834-19.03a7.777 7.777 0 0 1-10.623-2.848c-2.145-3.717-.869-8.466 2.848-10.615 3.715-2.146 8.471-.869 10.609 2.848a7.764 7.764 0 0 1-2.834 10.615zM-2074.457 55.721l-20.152-42.158-19.283 42.158s8.42-4.734 19.986-4.734c11.57-.001 19.449 4.734 19.449 4.734z"/>
    <path d="M-2046.051 78.219a45.263 45.263 0 0 0-2.336-5.691c-5.234-10.637-39.008-78.971-39.008-78.971l-6.779-13.703-6.773 13.703s-33.66 68.084-39.02 78.958c-3.209 6.517-4.84 13.785-4.84 21.61 0 27.916 22.713 50.624 50.633 50.624 27.914 0 50.627-22.708 50.627-50.63-.006-5.604-.846-10.929-2.504-15.9zm-48.123 58.973c-23.783 0-43.076-19.281-43.076-43.067 0-6.531 1.352-12.771 4.061-18.267 5.357-10.877 39.016-78.951 39.016-78.951s33.768 68.324 39.002 78.957c2.709 5.496 4.059 11.732 4.066 18.261 0 23.786-19.288 43.067-43.069 43.067z"/>
  </g>
  <path d="M-3527.539 63.302h840.958v297.64h-840.958zM-1804.384 63.302h840.959v297.64h-840.959z"/>
  <path fill="#ED1C24" d="M-1376.978-147.594h1.438v75.317h-1.438z"/>
  <path d="M-1377.995-71.646c.687-1.39 1.018-2.591 1.018-4.067h1.438c0 1.476.33 2.677 1.018 4.067h-3.474z" fill="#ED1C24"/>
  <path d="M-1545.051-88.991c0 .129.041.236.124.32.084.083.302.143.654.18v.334h-5.734v-.334c.353-.037.57-.097.655-.18a.433.433 0 0 0 .124-.32v-12.972c0-.13-.04-.236-.124-.32-.085-.083-.303-.144-.655-.182v-.333h10.188c2.06 0 3.554.375 4.482 1.127.926.751 1.39 1.917 1.39 3.493 0 1.282-.374 2.283-1.126 3.006-.752.724-1.702 1.244-2.853 1.559l3.284 4.621c.223.334.492.5.807.5v.334h-5.789v-.334c.408-.017.611-.185.611-.5 0-.037-.074-.166-.223-.39a44.273 44.273 0 0 0-1.294-1.823c-.271-.363-.527-.711-.778-1.045a57.8 57.8 0 0 1-.656-.89 8.675 8.675 0 0 1-.36-.53h-2.728v4.679zm4.676-7.627c.817 0 1.377-.154 1.684-.46.306-.306.458-.663.458-1.071s-.152-.766-.458-1.072c-.307-.307-.866-.459-1.684-.459h-4.676v3.062h4.676zM-1507.806-93.5a.874.874 0 0 0-.237-.459c-.121-.12-.319-.182-.599-.182h-5.178v2.59h8.937c.148 0 .259-.051.334-.154.073-.101.129-.328.168-.682h.332v4.761h-.332c-.039-.241-.095-.389-.168-.445-.075-.056-.186-.084-.334-.084h-13.892v-.334c.354-.037.571-.097.653-.18a.435.435 0 0 0 .127-.32v-12.972a.433.433 0 0 0-.127-.32c-.082-.083-.299-.144-.653-.182v-.333h13.892c.148 0 .259-.05.334-.153.073-.103.129-.311.168-.627h.332v4.844h-.332c-.039-.315-.095-.523-.168-.627-.075-.1-.186-.152-.334-.152h-8.937v2.311h5.178c.279 0 .478-.061.599-.181s.2-.274.237-.459h.334v4.342h-.334zM-1487.848-93.806c-.037.111-.053.306-.053.584 0 .185.168.395.512.626.344.232.789.45 1.337.654.546.204 1.174.375 1.878.515a11.06 11.06 0 0 0 2.144.208c1.393 0 2.413-.163 3.063-.488.648-.324.975-.793.975-1.406 0-.333-.284-.57-.85-.709-.568-.14-1.276-.25-2.129-.334-.855-.084-1.775-.176-2.758-.278s-1.901-.288-2.754-.557c-.855-.269-1.564-.659-2.132-1.169-.566-.51-.848-1.21-.848-2.101 0-.705.162-1.345.487-1.921a4.49 4.49 0 0 1 1.365-1.475c.584-.408 1.294-.729 2.129-.961.836-.231 1.762-.348 2.782-.348.949 0 1.827.061 2.646.181.816.121 1.54.255 2.172.403.629.149 1.159.283 1.586.404.427.12.731.18.918.18a.725.725 0 0 0 .445-.125c.112-.083.214-.181.307-.292l.308.111-1.921 3.871-.335-.168v-.306c0-.167-.181-.338-.544-.515-.36-.177-.82-.334-1.377-.474a17.148 17.148 0 0 0-1.865-.348 14.939 14.939 0 0 0-2.004-.14c-1.208 0-2.051.14-2.533.419-.482.278-.724.574-.724.89 0 .315.167.552.499.709.336.158.771.274 1.31.348.54.075 1.151.135 1.837.18.687.047 1.393.117 2.115.21.725.093 1.43.223 2.117.389a6.567 6.567 0 0 1 1.837.739c.537.324.974.751 1.309 1.28.334.528.5 1.193.5 1.991a4.59 4.59 0 0 1-.376 1.809c-.248.594-.677 1.127-1.279 1.6-.604.474-1.41.849-2.421 1.127-1.013.279-2.271.418-3.774.418-1.168 0-2.174-.056-3.019-.167s-1.563-.246-2.158-.403a14.694 14.694 0 0 1-1.405-.432c-.344-.13-.598-.195-.766-.195a.426.426 0 0 0-.293.112 5.28 5.28 0 0 0-.264.25l-.332-.084 2.059-4.955.277.143zM-1448.402-93.5a.867.867 0 0 0-.237-.459c-.121-.12-.319-.182-.599-.182h-5.178v2.59h8.937c.148 0 .259-.051.333-.154.074-.101.131-.328.169-.682h.333v4.761h-.333c-.038-.241-.095-.389-.169-.445-.074-.056-.185-.084-.333-.084h-13.892v-.334c.354-.037.571-.097.653-.18a.431.431 0 0 0 .127-.32v-12.972a.43.43 0 0 0-.127-.32c-.082-.083-.299-.144-.653-.182v-.333h13.892c.148 0 .259-.05.333-.153.074-.103.131-.311.169-.627h.333v4.844h-.333c-.038-.315-.095-.523-.169-.627-.074-.1-.185-.152-.333-.152h-8.937v2.311h5.178c.279 0 .478-.061.599-.181a.867.867 0 0 0 .237-.459h.334v4.342h-.334zM-1424.714-88.991c0 .129.04.236.126.32.083.083.3.143.654.18v.334h-5.735v-.334c.352-.037.571-.097.655-.18a.44.44 0 0 0 .123-.32v-12.972a.438.438 0 0 0-.123-.32c-.084-.083-.304-.144-.655-.182v-.333h10.187c2.061 0 3.557.375 4.485 1.127.925.751 1.39 1.917 1.39 3.493 0 1.282-.375 2.283-1.127 3.006-.753.724-1.702 1.244-2.854 1.559l3.286 4.621c.223.334.491.5.806.5v.334h-5.791v-.334c.41-.017.612-.185.612-.5 0-.037-.071-.166-.22-.39a51.542 51.542 0 0 0-1.297-1.823c-.27-.363-.527-.711-.777-1.045a42.998 42.998 0 0 1-.656-.89 8.675 8.675 0 0 1-.36-.53h-2.729v4.679zm4.677-7.627c.816 0 1.378-.154 1.683-.46.308-.306.462-.663.462-1.071s-.154-.766-.462-1.072c-.305-.307-.866-.459-1.683-.459h-4.677v3.062h4.677zM-1394.177-88.49c.168-.037.276-.073.333-.11.057-.038.084-.084.084-.141 0-.037-.074-.227-.223-.571-.148-.342-.34-.793-.571-1.35s-.506-1.187-.819-1.892c-.316-.705-.638-1.439-.962-2.2-.326-.761-.652-1.513-.988-2.255-.333-.743-.64-1.429-.917-2.06-.278-.631-.516-1.179-.711-1.642-.195-.464-.33-.789-.404-.975-.129-.315-.232-.52-.304-.612a.501.501 0 0 0-.337-.168v-.333h5.707v.333c-.224.02-.371.056-.444.112a.265.265 0 0 0-.112.222c0 .056.04.173.126.349l.527 1.127c.271.575.659 1.411 1.171 2.505.51 1.095 1.201 2.588 2.074 4.481l1.99-4.384c.49-1.086.873-1.917 1.141-2.491.27-.576.44-.969.515-1.183.074-.213.112-.357.112-.432 0-.092-.027-.162-.083-.208s-.169-.079-.335-.099v-.333h4.786v.333a1.576 1.576 0 0 0-.263.112c-.064.039-.117.121-.152.25-.037.112-.149.38-.334.807-.188.428-.414.957-.683 1.587-.27.63-.565 1.333-.891 2.102a364.4 364.4 0 0 1-1.002 2.353c-.345.799-.677 1.578-1.003 2.338-.324.761-.612 1.438-.861 2.033a40.683 40.683 0 0 0-.599 1.475c-.151.39-.226.603-.226.64 0 .168.131.251.392.251v.361h-5.734v-.332zM-1365.24-89.353c-.066.185-.111.32-.14.404a.64.64 0 0 0-.041.18c0 .094.03.163.095.209.065.046.201.069.404.069v.334h-4.926v-.334c.204-.037.352-.097.445-.18.092-.084.186-.236.277-.459.035-.093.13-.344.278-.752.147-.408.345-.923.584-1.544l.81-2.074c.295-.762.593-1.535.889-2.324l.877-2.311c.289-.752.543-1.425.766-2.019.225-.594.402-1.076.543-1.447.139-.371.208-.566.208-.585 0-.091-.059-.156-.178-.194a2.608 2.608 0 0 0-.377-.084v-.333h7.267v.333c-.151.02-.271.047-.365.084-.091.038-.138.13-.138.278 0 .038.087.278.266.724.175.445.403 1.025.681 1.739.279.715.599 1.522.959 2.423.363.899.738 1.818 1.128 2.755.392.938.766 1.852 1.127 2.743.363.89.692 1.688.99 2.393.147.334.272.557.377.669.101.11.234.166.401.166v.334h-5.482v-.334c.351-.017.527-.13.527-.334 0-.018-.047-.143-.139-.375-.094-.233-4.229-10.982-4.229-10.982s-3.821 10.643-3.884 10.828zM-1333.292-88.49c.35-.037.57-.097.653-.18a.433.433 0 0 0 .125-.32v-10.411h-4.786c-.151 0-.261.051-.337.152-.072.103-.129.311-.166.626h-.333v-4.955h.333c.037.316.094.524.166.627.076.103.186.153.337.153h13.751c.146 0 .258-.05.332-.153.076-.103.13-.311.168-.627h.335v4.955h-.335c-.038-.315-.092-.523-.168-.626-.074-.102-.186-.152-.332-.152h-4.789v10.411c0 .129.043.236.125.32.086.083.303.143.655.18v.334h-5.734v-.334zM-1306.53-88.49c.353-.037.571-.097.655-.18a.437.437 0 0 0 .125-.32v-12.972a.436.436 0 0 0-.125-.32c-.084-.083-.303-.144-.655-.182v-.333h5.735v.333c-.354.038-.57.099-.654.182a.432.432 0 0 0-.125.32v12.972c0 .129.041.236.125.32.084.083.3.143.654.18v.334h-5.735v-.334zM-1275.398-102.965c1.188 0 2.307.162 3.355.486a8.333 8.333 0 0 1 2.757 1.435 6.944 6.944 0 0 1 1.878 2.339c.463.928.696 2.004.696 3.228 0 1.226-.233 2.302-.696 3.229a6.931 6.931 0 0 1-1.878 2.338c-.791.632-1.708 1.096-2.757 1.392s-2.168.445-3.355.445a12.3 12.3 0 0 1-3.354-.445c-1.049-.296-1.969-.76-2.757-1.392a6.871 6.871 0 0 1-1.878-2.338c-.464-.927-.697-2.004-.697-3.229 0-1.224.233-2.3.697-3.228a6.885 6.885 0 0 1 1.878-2.339c.788-.63 1.708-1.108 2.757-1.435a11.305 11.305 0 0 1 3.354-.486zm0 3.396a5.42 5.42 0 0 0-1.739.278 4.568 4.568 0 0 0-1.447.793 3.814 3.814 0 0 0-1.002 1.281c-.252.51-.377 1.09-.377 1.739 0 .65.125 1.23.377 1.741a3.8 3.8 0 0 0 1.002 1.28 4.51 4.51 0 0 0 1.447.793 5.366 5.366 0 0 0 1.739.279c.613 0 1.193-.093 1.739-.279a4.536 4.536 0 0 0 1.448-.793 3.79 3.79 0 0 0 1.003-1.28c.251-.511.375-1.091.375-1.741 0-.648-.124-1.229-.375-1.739a3.804 3.804 0 0 0-1.003-1.281 4.575 4.575 0 0 0-1.448-.793 5.384 5.384 0 0 0-1.739-.278zM-1250.34-101.963a.432.432 0 0 0-.125-.32c-.083-.083-.302-.144-.652-.182v-.333h6.706v.333c-.313.02-.522.062-.626.126-.102.065-.152.144-.152.236 0 .038.12.204.363.501.239.297.557.668.945 1.113.39.446.831.943 1.322 1.49.491.547.989 1.095 1.489 1.642.502.547.983 1.067 1.448 1.559.464.492.863.915 1.196 1.266v-7.432c0-.314-.193-.482-.585-.502v-.333h5.094v.333c-.35.038-.571.099-.652.182a.425.425 0 0 0-.126.32v12.972c0 .129.04.236.126.32.081.083.303.143.652.18v.334h-5.287v-.334c.258 0 .43-.027.514-.083a.253.253 0 0 0 .125-.222.391.391 0 0 0-.082-.209 4.63 4.63 0 0 0-.363-.432 53.321 53.321 0 0 0-.821-.876c-.36-.38-.84-.891-1.434-1.532a437.486 437.486 0 0 1-5.345-5.888v8.741c0 .129.043.236.127.32.081.083.302.143.652.18v.334h-5.286v-.334c.351-.037.569-.097.652-.18a.433.433 0 0 0 .125-.32v-12.97zM-1216.26-93.806c-.038.111-.056.306-.056.584 0 .185.169.395.514.626.343.232.788.45 1.336.654s1.175.375 1.88.515c.703.139 1.419.208 2.143.208 1.391 0 2.412-.163 3.062-.488.649-.324.974-.793.974-1.406 0-.333-.281-.57-.849-.709-.565-.14-1.275-.25-2.129-.334a559.82 559.82 0 0 1-2.757-.278 13.927 13.927 0 0 1-2.755-.557c-.854-.269-1.563-.659-2.13-1.169-.563-.51-.85-1.21-.85-2.101 0-.705.163-1.345.488-1.921a4.497 4.497 0 0 1 1.364-1.475c.585-.408 1.294-.729 2.129-.961.835-.231 1.764-.348 2.783-.348.948 0 1.828.061 2.645.181.816.121 1.542.255 2.173.403.631.149 1.159.283 1.586.404.427.12.734.18.92.18a.73.73 0 0 0 .445-.125c.109-.083.212-.181.306-.292l.305.111-1.92 3.871-.333-.168v-.306c0-.167-.181-.338-.543-.515-.363-.177-.822-.334-1.378-.474a17.26 17.26 0 0 0-1.866-.348 14.93 14.93 0 0 0-2.005-.14c-1.206 0-2.05.14-2.532.419-.483.278-.723.574-.723.89 0 .315.166.552.499.709.335.158.772.274 1.31.348a25.39 25.39 0 0 0 1.837.18c.687.047 1.392.117 2.118.21.721.093 1.428.223 2.113.389.687.168 1.3.415 1.837.739.539.324.976.751 1.308 1.28.336.528.501 1.193.501 1.991a4.64 4.64 0 0 1-.373 1.809c-.252.594-.679 1.127-1.281 1.6-.604.474-1.413.849-2.423 1.127-1.011.279-2.27.418-3.771.418-1.17 0-2.177-.056-3.021-.167a17.494 17.494 0 0 1-2.156-.403 14.914 14.914 0 0 1-1.406-.432c-.343-.13-.598-.195-.765-.195a.42.42 0 0 0-.292.112 5.274 5.274 0 0 0-.266.25l-.333-.084 2.06-4.955.277.143zM-1388.197-118.504a.635.635 0 0 0 .086-.331c0-.262-.164-.533-.564-.937l-9.211-9.603v10.289c0 .204.059.414.197.581h-2.481a.95.95 0 0 0 .175-.581v-12.639a.953.953 0 0 0-.175-.581h3.419a.788.788 0 0 0-.076.359c0 .282.195.594.679 1.076l8.708 9.041v-9.895a.909.909 0 0 0-.205-.581h2.488a.958.958 0 0 0-.173.581v12.639c0 .233.061.431.173.581h-3.04zM-1360.918-118.42c-.979 0-1.991-.136-3.012-.404a8.6 8.6 0 0 1-2.761-1.273 7.101 7.101 0 0 1-2.022-2.195c-.515-.868-.774-1.914-.774-3.112 0-1.198.26-2.246.774-3.112a7.091 7.091 0 0 1 2.022-2.195 9.339 9.339 0 0 1 2.771-1.318 10.84 10.84 0 0 1 3.002-.443c.976 0 1.985.149 3.001.443a9.339 9.339 0 0 1 2.771 1.318 7.068 7.068 0 0 1 2.023 2.195c.516.866.776 1.914.776 3.112 0 1.198-.261 2.244-.776 3.112a7.089 7.089 0 0 1-2.023 2.195 8.586 8.586 0 0 1-2.76 1.273 11.865 11.865 0 0 1-3.012.404zm0-12.332c-.744 0-1.499.119-2.242.354-.746.235-1.43.58-2.031 1.023a5.46 5.46 0 0 0-1.491 1.673c-.388.673-.583 1.446-.583 2.298 0 .852.195 1.624.586 2.297.377.66.878 1.223 1.488 1.673a6.975 6.975 0 0 0 2.031 1.023 7.426 7.426 0 0 0 2.242.354c.747 0 1.5-.119 2.243-.354a6.958 6.958 0 0 0 2.028-1.023 5.467 5.467 0 0 0 1.494-1.673c.387-.675.583-1.447.583-2.297 0-.851-.196-1.623-.583-2.298a5.459 5.459 0 0 0-1.494-1.673 6.861 6.861 0 0 0-2.028-1.023 7.442 7.442 0 0 0-2.243-.354z"/>
  <path d="M-1412.916-67.729c0-.283-.034-.523-.106-.724a1.022 1.022 0 0 0-.381-.497c-.184-.136-.436-.234-.753-.297a6.387 6.387 0 0 0-1.219-.096h-4.541v3.437h4.646c.862 0 1.472-.161 1.823-.488.355-.325.531-.769.531-1.335z" fill="none"/>
  <path d="M-1505.078-70.785v11.161h9.996v-1.4h-8.213v-3.606h5.434v-1.419h-5.434v-3.337h7.704v-1.399zM-1474.88-62.423h-.043l-7.311-8.362h-2.212v11.161h1.544v-9.422l8.269 9.422h1.254v-11.161h-1.501zM-1452.344-69.391v-1.394h-10.907v1.394h4.563v9.767h1.782v-9.767zM-1442.372-70.785v11.161h10.019v-1.409h-8.213v-3.597h5.433v-1.408h-5.433v-3.353h7.705v-1.394zM-1410.951-59.624l-3.216-4.944c1.061-.14 1.826-.475 2.292-.999.467-.521.699-1.231.699-2.123 0-1.003-.304-1.771-.91-2.302-.609-.529-1.615-.794-3.015-.794h-6.602v11.161h1.786v-4.838h3.902l3.036 4.838h2.028zm-8.965-6.282v-3.437h4.541c.494 0 .897.032 1.219.096.317.062.569.161.753.297.185.134.312.299.381.497.072.201.106.44.106.724 0 .566-.176 1.01-.531 1.335-.352.327-.961.488-1.823.488h-4.646zM-1390.802-69.391v-1.394h-10.907v1.394l4.563.005v9.762h1.785l-.002-9.762zM-1360.248-70.785h1.779v11.161h-1.779zM-1337.176-62.423h-.042l-7.324-8.362h-2.187v11.161h1.522l.008-9.422 8.281 9.422h1.273v-11.161h-1.543zM-1313.89-70.785l-3.997 7.555-3.85-7.555h-2.206v11.161h1.495v-9.147l.021-.041 4.519 8.977 4.521-8.977.065.041-.014 9.147h1.785v-11.161zM-1299.908-70.785v11.161h9.97v-1.397l-8.212-.003v-3.608h5.431v-1.4h-5.431v-3.354h7.704v-1.399zM-1269.719-62.423h-.058l-7.325-8.362h-2.173v11.161h1.518v-9.422l8.28 9.422h1.253v-11.161h-1.495zM-1258.105-70.785v1.399h4.562v9.762h1.776l.006-9.762h4.563v-1.399z"/>
  <path d="M-3092.316-61.414c-.96-1.951-7.155-14.484-7.155-14.484l-1.243-2.514-1.243 2.514s-6.173 12.487-7.156 14.482c-.589 1.195-.888 2.528-.888 3.964 0 5.121 4.165 9.286 9.287 9.286 5.12 0 9.285-4.165 9.285-9.287-.003-1.432-.299-2.765-.887-3.961z" fill="#ED1C24"/>
  <path fill="#ED1C24" d="M-3101.34-141.34h1.249v65.43h-1.249z"/>
  <path d="M-3101.873-76.071c.353-.712.533-1.229.533-2.206h1.249c0 .976.181 1.494.533 2.206h-2.315z" fill="#ED1C24"/>
  <g fill="#FFF">
    <circle cx="-3100.765" cy="-61.508" r="1.425"/>
    <path d="M-3103.527-60.736a1.425 1.425 0 1 1-1.425 2.468 1.425 1.425 0 0 1 1.425-2.468z"/>
    <circle cx="-3104.239" cy="-55.489" r="1.425"/>
    <circle cx="-3100.765" cy="-53.482" r="1.425"/>
    <path d="M-3098.001-54.254a1.425 1.425 0 1 1 0 0z"/>
    <circle cx="-3097.289" cy="-59.502" r="1.425"/>
    <path d="M-3093.561-60.802c-.961-1.95-7.154-14.481-7.154-14.481s-6.174 12.485-7.156 14.479c-.496 1.009-.744 2.153-.744 3.351a7.9 7.9 0 0 0 15.799 0c-.001-1.197-.248-2.34-.745-3.349zm-7.234-11.427l3.695 7.732s-1.443-.869-3.566-.869c-2.121 0-3.666.869-3.666.869l3.537-7.732zm.029 21.225a6.491 6.491 0 0 1 0-12.98 6.488 6.488 0 0 1 6.49 6.489 6.49 6.49 0 0 1-6.49 6.491z"/>
  </g>
  <path d="M-3247.283-90.985a.38.38 0 0 0 .107.278c.073.073.262.125.568.157v.29h-4.979v-.29c.307-.032.495-.084.569-.157a.38.38 0 0 0 .107-.278v-11.264a.378.378 0 0 0-.107-.278c-.074-.073-.263-.125-.569-.158v-.289h8.847c1.789 0 3.086.326 3.893.979.804.652 1.207 1.665 1.207 3.033 0 1.113-.325 1.982-.978 2.61-.653.628-1.479 1.08-2.478 1.354l2.852 4.013c.193.29.428.435.701.435v.29h-5.027v-.29c.354-.015.531-.161.531-.435 0-.032-.064-.145-.193-.339a34.218 34.218 0 0 0-.483-.701 33.374 33.374 0 0 0-.641-.882c-.234-.315-.458-.618-.676-.907-.218-.29-.407-.548-.569-.772a7.99 7.99 0 0 1-.313-.46h-2.368v4.061zm4.06-6.623c.709 0 1.195-.133 1.462-.399.265-.265.397-.575.397-.93s-.133-.665-.397-.931c-.267-.266-.753-.399-1.462-.399h-4.061v2.659h4.061zM-3214.942-94.901a.759.759 0 0 0-.206-.399c-.104-.104-.277-.158-.52-.158h-4.496v2.249h7.76c.129 0 .225-.044.29-.133.063-.087.112-.285.146-.592h.289v4.134h-.289c-.033-.209-.082-.337-.146-.387a.484.484 0 0 0-.29-.073h-12.062v-.29c.308-.032.496-.084.567-.157a.378.378 0 0 0 .11-.278v-11.264a.376.376 0 0 0-.11-.278c-.071-.073-.26-.125-.567-.158v-.289h12.062c.129 0 .225-.044.29-.133.063-.089.112-.27.146-.544h.289v4.206h-.289c-.033-.274-.082-.455-.146-.544-.065-.087-.161-.132-.29-.132h-7.76v2.007h4.496c.242 0 .415-.053.52-.157a.759.759 0 0 0 .206-.399h.29v3.771h-.29zM-3197.612-95.167c-.032.097-.046.266-.046.507 0 .161.146.342.444.544.299.202.686.391 1.161.568.475.177 1.02.326 1.631.447a9.577 9.577 0 0 0 1.861.181c1.209 0 2.096-.141 2.66-.423.563-.281.846-.689.846-1.221 0-.29-.246-.495-.737-.616a13.633 13.633 0 0 0-1.849-.291c-.742-.073-1.541-.153-2.395-.242a12.09 12.09 0 0 1-2.392-.483c-.742-.233-1.358-.572-1.851-1.015-.492-.443-.736-1.051-.736-1.825 0-.612.141-1.168.423-1.668a3.899 3.899 0 0 1 1.186-1.28c.507-.354 1.124-.633 1.849-.834.726-.201 1.53-.302 2.416-.302.824 0 1.587.053 2.297.157a23.63 23.63 0 0 1 1.887.35c.546.129 1.006.246 1.377.351.37.104.635.157.797.157.16 0 .291-.037.387-.109.098-.072.186-.157.267-.254l.267.097-1.668 3.361-.291-.146v-.266c0-.145-.156-.293-.472-.447a6.068 6.068 0 0 0-1.196-.411 15.036 15.036 0 0 0-1.619-.302 12.954 12.954 0 0 0-1.74-.122c-1.049 0-1.781.122-2.2.364-.419.241-.628.499-.628.773 0 .273.145.479.434.616.291.137.669.238 1.137.302.469.065 1 .117 1.596.157.596.041 1.209.102 1.836.182.63.081 1.241.194 1.839.337.597.146 1.126.36 1.595.642.467.281.846.652 1.137 1.111.29.458.434 1.036.434 1.729 0 .532-.107 1.055-.326 1.571-.216.516-.588.979-1.11 1.39-.524.411-1.225.737-2.103.979-.88.242-1.973.363-3.277.363-1.015 0-1.888-.048-2.621-.145s-1.357-.213-1.874-.35-.923-.263-1.221-.375c-.298-.113-.519-.169-.665-.169a.369.369 0 0 0-.254.097 4.38 4.38 0 0 0-.229.217l-.289-.073 1.788-4.303.237.122zM-3163.36-94.901a.759.759 0 0 0-.206-.399c-.105-.104-.277-.158-.52-.158h-4.496v2.249h7.76c.129 0 .225-.044.289-.133.064-.087.113-.285.146-.592h.289v4.134h-.289c-.033-.209-.082-.337-.146-.387a.478.478 0 0 0-.289-.073h-12.062v-.29c.308-.032.496-.084.567-.157a.378.378 0 0 0 .11-.278v-11.264a.376.376 0 0 0-.11-.278c-.071-.073-.26-.125-.567-.158v-.289h12.062c.129 0 .225-.044.289-.133.064-.089.113-.27.146-.544h.289v4.206h-.289c-.033-.274-.082-.455-.146-.544-.064-.087-.16-.132-.289-.132h-7.76v2.007h4.496c.242 0 .414-.053.52-.157a.759.759 0 0 0 .206-.399h.29v3.771h-.29zM-3142.791-90.985c0 .112.035.205.109.278.072.073.261.125.568.157v.29h-4.98v-.29c.306-.032.496-.084.569-.157a.383.383 0 0 0 .106-.278v-11.264a.38.38 0 0 0-.106-.278c-.073-.073-.264-.125-.569-.158v-.289h8.846c1.789 0 3.088.326 3.895.979.803.652 1.207 1.665 1.207 3.033 0 1.113-.326 1.982-.979 2.61-.654.628-1.479 1.08-2.479 1.354l2.854 4.013c.193.29.427.435.7.435v.29h-5.028v-.29c.355-.015.531-.161.531-.435 0-.032-.062-.145-.191-.339a35.993 35.993 0 0 0-1.126-1.583c-.233-.315-.458-.618-.675-.907-.219-.29-.408-.548-.569-.772a7.99 7.99 0 0 1-.313-.46h-2.369v4.061zm4.062-6.623c.708 0 1.196-.133 1.461-.399.267-.265.4-.575.4-.93s-.134-.665-.4-.931c-.265-.266-.753-.399-1.461-.399h-4.062v2.659h4.062zM-3116.274-90.551a.965.965 0 0 0 .289-.096c.049-.033.073-.073.073-.122 0-.032-.064-.197-.193-.496-.129-.297-.295-.688-.496-1.172s-.439-1.031-.712-1.643c-.274-.612-.554-1.25-.835-1.91-.283-.66-.566-1.313-.858-1.958-.289-.645-.556-1.241-.796-1.789a84.926 84.926 0 0 1-.969-2.272c-.111-.274-.201-.452-.264-.532a.433.433 0 0 0-.292-.146v-.289h4.955v.289c-.194.017-.322.049-.386.098a.23.23 0 0 0-.098.193c0 .049.035.15.109.303l.458.979 1.017 2.175c.442.951 1.043 2.248 1.801 3.891l1.729-3.807c.426-.943.758-1.664.99-2.163.234-.5.383-.842.447-1.027.064-.185.098-.311.098-.375 0-.08-.024-.14-.072-.181-.049-.04-.146-.068-.291-.085v-.289h4.156v.289a1.301 1.301 0 0 0-.229.098c-.056.033-.102.105-.132.217-.032.097-.13.331-.29.701-.164.372-.359.831-.593 1.378-.234.547-.491 1.157-.773 1.825-.283.669-.571 1.351-.87 2.043-.3.693-.588 1.37-.871 2.03-.281.661-.531 1.249-.748 1.765-.218.516-.393.942-.52 1.28-.131.338-.195.524-.195.556 0 .146.113.218.34.218v.314h-4.979v-.29zM-3091.148-91.3c-.058.161-.097.278-.121.351a.571.571 0 0 0-.035.157c0 .081.026.141.082.181.057.041.175.061.352.061v.29h-4.277v-.29c.177-.032.305-.084.387-.157.079-.073.161-.205.24-.399.031-.081.113-.299.242-.653.128-.354.299-.801.507-1.341l.703-1.801c.256-.662.515-1.333.771-2.018.26-.685.513-1.354.762-2.006.251-.653.472-1.237.665-1.753.194-.516.349-.935.471-1.257.121-.322.181-.491.181-.508 0-.08-.051-.136-.154-.169a2.318 2.318 0 0 0-.327-.073v-.289h6.31v.289a1.358 1.358 0 0 0-.316.073c-.079.033-.12.113-.12.242 0 .033.075.242.23.629.152.386.351.89.591 1.51.243.621.521 1.322.833 2.104.315.78.642 1.579.979 2.392.34.815.665 1.608.979 2.382.315.773.602 1.465.86 2.078.128.291.236.483.327.581a.448.448 0 0 0 .349.145v.29h-4.761v-.29c.305-.015.458-.113.458-.29 0-.016-.041-.125-.12-.326-.082-.202-3.673-9.536-3.673-9.536s-3.32 9.241-3.375 9.401zM-3063.406-90.551c.304-.032.495-.084.567-.157a.376.376 0 0 0 .108-.278v-9.04h-4.156c-.131 0-.227.044-.292.132-.063.089-.112.27-.145.544h-.289v-4.303h.289c.032.275.081.455.145.544.065.089.161.133.292.133h11.94c.127 0 .224-.044.289-.133.065-.089.112-.27.146-.544h.291v4.303h-.291c-.033-.274-.08-.455-.146-.544-.065-.088-.162-.132-.289-.132h-4.158v9.04c0 .112.037.205.108.278.074.073.263.125.569.157v.29h-4.979v-.29zM-3040.168-90.551c.306-.032.496-.084.568-.157a.38.38 0 0 0 .108-.278v-11.264c0-.113-.036-.205-.108-.278s-.263-.125-.568-.158v-.289h4.979v.289c-.308.033-.495.085-.567.158a.375.375 0 0 0-.109.278v11.264c0 .112.036.205.109.278.072.073.26.125.567.157v.29h-4.979v-.29zM-3013.136-103.12c1.031 0 2.003.141 2.914.422.91.283 1.707.698 2.394 1.246a6.013 6.013 0 0 1 1.631 2.031c.402.806.604 1.74.604 2.803 0 1.064-.202 1.999-.604 2.804a6 6 0 0 1-1.631 2.03 6.696 6.696 0 0 1-2.394 1.209c-.911.257-1.883.387-2.914.387-1.029 0-2.002-.129-2.912-.387s-1.709-.66-2.394-1.209a5.964 5.964 0 0 1-1.631-2.03c-.402-.805-.605-1.74-.605-2.804 0-1.063.203-1.997.605-2.803a5.977 5.977 0 0 1 1.631-2.031 7.25 7.25 0 0 1 2.394-1.246 9.83 9.83 0 0 1 2.912-.422zm0 2.949c-.531 0-1.035.082-1.51.242a3.975 3.975 0 0 0-1.257.689c-.362.299-.653.67-.87 1.113-.219.443-.327.947-.327 1.51 0 .564.108 1.068.327 1.512.217.443.508.813.87 1.111.361.299.781.528 1.257.688.475.162.979.243 1.51.243.533 0 1.036-.081 1.511-.243.476-.16.895-.39 1.257-.688.363-.298.654-.668.871-1.111.218-.444.326-.947.326-1.512 0-.563-.108-1.067-.326-1.51a3.306 3.306 0 0 0-.871-1.113 3.986 3.986 0 0 0-1.257-.689 4.673 4.673 0 0 0-1.511-.242zM-2991.376-102.25a.375.375 0 0 0-.109-.278c-.071-.073-.262-.125-.566-.158v-.289h5.823v.289c-.271.017-.453.053-.543.11-.089.056-.133.125-.133.205 0 .033.104.177.315.435.208.258.483.58.821.966a168.295 168.295 0 0 0 3.698 4.073l1.039 1.1v-6.453c0-.273-.168-.419-.508-.436v-.289h4.423v.289c-.304.033-.496.085-.566.158a.371.371 0 0 0-.109.278v11.264c0 .112.035.205.109.278.07.073.263.125.566.157v.29h-4.591v-.29c.224 0 .373-.024.446-.073a.218.218 0 0 0 .108-.193.35.35 0 0 0-.071-.182 4.12 4.12 0 0 0-.315-.375 41.594 41.594 0 0 0-.713-.761c-.313-.33-.729-.773-1.245-1.33a353.492 353.492 0 0 1-4.641-5.112v7.59c0 .112.037.205.11.278.07.073.262.125.566.157v.29h-4.591v-.29c.305-.032.495-.084.566-.157a.377.377 0 0 0 .109-.278v-11.263zM-2961.783-95.167c-.033.097-.049.266-.049.507 0 .161.147.342.446.544.298.202.685.391 1.16.568s1.02.326 1.632.447a9.559 9.559 0 0 0 1.86.181c1.208 0 2.095-.141 2.659-.423.563-.281.846-.689.846-1.221 0-.29-.245-.495-.737-.616-.491-.121-1.107-.217-1.849-.291-.74-.073-1.538-.153-2.394-.242a12.1 12.1 0 0 1-2.393-.483c-.741-.233-1.357-.572-1.85-1.015-.489-.443-.737-1.051-.737-1.825 0-.612.142-1.168.424-1.668a3.895 3.895 0 0 1 1.185-1.28c.508-.354 1.124-.633 1.849-.834.725-.201 1.531-.302 2.417-.302.823 0 1.587.053 2.296.157.709.105 1.339.222 1.887.35.548.129 1.007.246 1.377.351.371.104.638.157.799.157.16 0 .29-.037.387-.109a1.59 1.59 0 0 0 .266-.254l.265.097-1.667 3.361-.289-.146v-.266c0-.145-.157-.293-.472-.447a6.138 6.138 0 0 0-1.196-.411 15.124 15.124 0 0 0-1.621-.302 12.92 12.92 0 0 0-1.74-.122c-1.048 0-1.78.122-2.199.364-.42.241-.627.499-.627.773 0 .273.144.479.433.616.291.137.671.238 1.138.302.466.065.998.117 1.595.157.596.041 1.208.102 1.839.182.626.081 1.24.194 1.836.337a5.68 5.68 0 0 1 1.595.642c.468.281.847.652 1.136 1.111.291.458.435 1.036.435 1.729 0 .532-.107 1.055-.324 1.571-.219.516-.589.979-1.112 1.39-.525.411-1.227.737-2.104.979-.878.242-1.971.363-3.275.363-1.016 0-1.89-.048-2.623-.145s-1.357-.213-1.873-.35-.922-.263-1.221-.375c-.298-.113-.519-.169-.664-.169a.365.365 0 0 0-.254.097 4.377 4.377 0 0 0-.23.217l-.289-.073 1.788-4.303.239.122z"/>
  <g>
    <path d="M-3111.082-117.051a.55.55 0 0 0 .074-.287c0-.228-.143-.463-.49-.813l-7.998-8.338v8.934c0 .177.051.359.172.505h-2.155a.821.821 0 0 0 .151-.505v-10.975a.824.824 0 0 0-.151-.504h2.969a.692.692 0 0 0-.066.312c0 .245.17.516.59.935l7.562 7.851v-8.592c0-.1-.021-.321-.179-.504h2.161a.826.826 0 0 0-.15.504v10.975c0 .203.053.374.15.505h-2.64zM-3087.395-116.978a10.3 10.3 0 0 1-2.615-.351 7.46 7.46 0 0 1-2.397-1.105 6.157 6.157 0 0 1-1.756-1.906c-.447-.753-.673-1.662-.673-2.702 0-1.041.226-1.95.673-2.702a6.158 6.158 0 0 1 1.756-1.906 8.104 8.104 0 0 1 2.405-1.144c.885-.255 1.761-.385 2.607-.385s1.724.13 2.605.385a8.098 8.098 0 0 1 2.406 1.144 6.158 6.158 0 0 1 1.757 1.906c.447.752.674 1.662.674 2.702s-.227 1.949-.674 2.702a6.157 6.157 0 0 1-1.757 1.906 7.454 7.454 0 0 1-2.396 1.105c-.884.233-1.764.351-2.615.351zm0-10.709a6.49 6.49 0 0 0-1.947.307 5.998 5.998 0 0 0-1.764.889c-.527.39-.965.879-1.295 1.453-.337.584-.507 1.255-.507 1.995s.17 1.41.509 1.995a4.689 4.689 0 0 0 1.293 1.453 6.019 6.019 0 0 0 1.764.888c.645.204 1.3.307 1.947.307.648 0 1.302-.103 1.947-.307a6.07 6.07 0 0 0 1.762-.888c.53-.392.966-.88 1.297-1.453.336-.586.507-1.256.507-1.995s-.171-1.409-.507-1.995a4.741 4.741 0 0 0-1.297-1.453 5.986 5.986 0 0 0-1.762-.889 6.485 6.485 0 0 0-1.947-.307z"/>
  </g>
  <g>
    <path d="M-3132.547-71.961a1.85 1.85 0 0 0-.092-.628.902.902 0 0 0-.331-.432c-.159-.118-.378-.204-.653-.258a5.523 5.523 0 0 0-1.059-.083h-3.943v2.984h4.034c.749 0 1.277-.14 1.583-.423.309-.283.461-.669.461-1.16z" fill="none"/>
    <path d="M-3212.574-74.615v9.692h8.68v-1.217h-7.131v-3.131h4.717v-1.232h-4.717V-73.4h6.689v-1.215zM-3186.352-67.354h-.037l-6.349-7.261h-1.92v9.692h1.341v-8.182l7.18 8.182h1.088v-9.692h-1.303zM-3166.783-73.405v-1.21h-9.471v1.21h3.962v8.482h1.548v-8.482zM-3158.124-74.615v9.692h8.7v-1.224h-7.132v-3.124h4.718v-1.222h-4.718v-2.912h6.691v-1.21zM-3130.84-64.923l-2.793-4.293c.921-.122 1.586-.412 1.99-.867.405-.453.607-1.069.607-1.843 0-.871-.264-1.538-.791-1.999-.528-.459-1.402-.69-2.617-.69h-5.732v9.691h1.551v-4.201h3.389l2.637 4.201h1.759zm-7.785-5.455v-2.984h3.943c.429 0 .779.028 1.059.083.275.054.494.14.653.258.16.116.271.26.331.432.062.174.092.382.092.628 0 .492-.152.877-.461 1.16-.306.284-.834.423-1.583.423h-4.034zM-3113.344-73.405v-1.21h-9.471v1.21l3.961.005v8.477h1.551l-.002-8.477zM-3086.813-74.615h1.545v9.691h-1.545zM-3066.778-67.354h-.037l-6.36-7.261h-1.899v9.692h1.321l.007-8.182 7.191 8.182h1.106v-9.692h-1.34zM-3046.559-74.615l-3.47 6.56-3.344-6.56h-1.915v9.692h1.298v-7.943l.018-.036 3.924 7.795 3.926-7.795.056.036-.012 7.943h1.551v-9.692zM-3034.418-74.615v9.692h8.658v-1.214l-7.132-.003v-3.132h4.717v-1.216h-4.717V-73.4h6.69v-1.215zM-3008.204-67.354h-.051l-6.359-7.261h-1.888v9.692h1.318v-8.182l7.191 8.182h1.088v-9.692h-1.299zM-2998.119-74.615v1.215h3.962v8.477h1.542l.005-8.477h3.962v-1.215z"/>
  </g>
  <path fill="none" stroke="#000" stroke-width="2" stroke-miterlimit="10" d="M-3289.629-141.34h377.827v97.108h-377.827z"/>
  <path d="M-3092.316 224.675c-.96-1.95-7.155-14.484-7.155-14.484l-1.243-2.514-1.243 2.514s-6.173 12.488-7.156 14.482c-.589 1.195-.888 2.528-.888 3.964 0 5.12 4.165 9.286 9.287 9.286 5.12 0 9.285-4.166 9.285-9.287-.003-1.432-.299-2.765-.887-3.961z" fill="#ED1C24"/>
  <path fill="#ED1C24" d="M-3101.34 144.749h1.249v65.43h-1.249z"/>
  <path d="M-3101.873 210.019c.353-.713.533-1.23.533-2.206h1.249c0 .976.181 1.493.533 2.206h-2.315z" fill="#ED1C24"/>
  <g>
    <circle cx="-3100.765" cy="224.581" r="1.425"/>
    <path d="M-3103.527 225.353a1.425 1.425 0 1 1-1.425 2.468 1.425 1.425 0 0 1 1.425-2.468z"/>
    <circle cx="-3104.239" cy="230.601" r="1.425"/>
    <circle cx="-3100.765" cy="232.606" r="1.425"/>
    <path d="M-3098.001 231.835a1.425 1.425 0 1 1 0 0z"/>
    <circle cx="-3097.289" cy="226.587" r="1.425"/>
    <path d="M-3093.561 225.287c-.961-1.95-7.154-14.481-7.154-14.481s-6.174 12.485-7.156 14.48c-.496 1.008-.744 2.152-.744 3.351a7.9 7.9 0 0 0 15.799 0c-.001-1.199-.248-2.341-.745-3.35zm-7.234-11.427l3.695 7.732s-1.443-.869-3.566-.869c-2.121 0-3.666.869-3.666.869l3.537-7.732zm.029 21.225a6.492 6.492 0 0 1-6.489-6.492 6.49 6.49 0 0 1 6.489-6.488 6.487 6.487 0 0 1 6.49 6.488 6.49 6.49 0 0 1-6.49 6.492z"/>
  </g>
  <g fill="#FFF">
    <path d="M-3247.283 195.104a.38.38 0 0 0 .107.278c.073.072.262.124.568.156v.29h-4.979v-.29c.307-.032.495-.084.569-.156a.38.38 0 0 0 .107-.278v-11.265a.375.375 0 0 0-.107-.277c-.074-.072-.263-.125-.569-.158v-.289h8.847c1.789 0 3.086.326 3.893.979.804.652 1.207 1.665 1.207 3.033 0 1.113-.325 1.982-.978 2.611-.653.628-1.479 1.08-2.478 1.354l2.852 4.013c.193.29.428.435.701.435v.29h-5.027v-.29c.354-.016.531-.16.531-.435 0-.032-.064-.145-.193-.339a35.159 35.159 0 0 0-1.124-1.582c-.234-.315-.458-.618-.676-.908a47.161 47.161 0 0 1-.569-.771 7.554 7.554 0 0 1-.313-.461h-2.368v4.06zm4.06-6.624c.709 0 1.195-.134 1.462-.399.265-.266.397-.575.397-.93 0-.355-.133-.665-.397-.932-.267-.266-.753-.398-1.462-.398h-4.061v2.659h4.061zM-3214.942 191.188a.759.759 0 0 0-.206-.399c-.104-.104-.277-.157-.52-.157h-4.496v2.249h7.76c.129 0 .225-.045.29-.134.063-.087.112-.285.146-.593h.289v4.135h-.289c-.033-.21-.082-.338-.146-.387-.065-.049-.161-.073-.29-.073h-12.062v-.29c.308-.032.496-.084.567-.156a.38.38 0 0 0 .11-.278V183.84a.374.374 0 0 0-.11-.277c-.071-.072-.26-.125-.567-.158v-.289h12.062c.129 0 .225-.044.29-.133.063-.09.112-.27.146-.545h.289v4.207h-.289c-.033-.274-.082-.455-.146-.545a.34.34 0 0 0-.29-.133h-7.76v2.008h4.496c.242 0 .415-.053.52-.158a.756.756 0 0 0 .206-.398h.29v3.771h-.29zM-3197.612 190.922c-.032.097-.046.266-.046.507 0 .161.146.343.444.545a5.56 5.56 0 0 0 1.161.567c.475.177 1.02.326 1.631.447.613.12 1.232.181 1.861.181 1.209 0 2.096-.141 2.66-.423.563-.281.846-.688.846-1.221 0-.29-.246-.495-.737-.616a13.494 13.494 0 0 0-1.849-.29c-.742-.073-1.541-.153-2.395-.241a12.09 12.09 0 0 1-2.392-.484c-.742-.232-1.358-.571-1.851-1.015-.492-.442-.736-1.052-.736-1.825 0-.611.141-1.168.423-1.668.282-.499.679-.926 1.186-1.28s1.124-.633 1.849-.835c.726-.2 1.53-.301 2.416-.301.824 0 1.587.053 2.297.156.709.105 1.338.223 1.887.351.546.13 1.006.246 1.377.351.37.104.635.157.797.157.16 0 .291-.037.387-.108a1.56 1.56 0 0 0 .267-.254l.267.096-1.668 3.361-.291-.146v-.266c0-.145-.156-.293-.472-.447a6.139 6.139 0 0 0-1.196-.41 15.024 15.024 0 0 0-1.619-.303 13.116 13.116 0 0 0-1.74-.121c-1.049 0-1.781.121-2.2.363s-.628.499-.628.773c0 .273.145.479.434.616.291.138.669.237 1.137.302.469.065 1 .117 1.596.156.596.041 1.209.102 1.836.183.63.081 1.241.194 1.839.337a5.694 5.694 0 0 1 1.595.643c.467.281.846.652 1.137 1.111.29.459.434 1.035.434 1.729 0 .531-.107 1.055-.326 1.57-.216.516-.588.979-1.11 1.391-.524.41-1.225.736-2.103.979-.88.242-1.973.363-3.277.363-1.015 0-1.888-.049-2.621-.146s-1.357-.214-1.874-.351-.923-.262-1.221-.375c-.298-.112-.519-.168-.665-.168a.364.364 0 0 0-.254.097 4.035 4.035 0 0 0-.229.218l-.289-.073 1.788-4.303.237.12zM-3163.36 191.188a.759.759 0 0 0-.206-.399c-.105-.104-.277-.157-.52-.157h-4.496v2.249h7.76c.129 0 .225-.045.289-.134.064-.087.113-.285.146-.593h.289v4.135h-.289c-.033-.21-.082-.338-.146-.387s-.16-.073-.289-.073h-12.062v-.29c.308-.032.496-.084.567-.156a.38.38 0 0 0 .11-.278V183.84a.374.374 0 0 0-.11-.277c-.071-.072-.26-.125-.567-.158v-.289h12.062c.129 0 .225-.044.289-.133.064-.09.113-.27.146-.545h.289v4.207h-.289c-.033-.274-.082-.455-.146-.545-.064-.087-.16-.133-.289-.133h-7.76v2.008h4.496c.242 0 .414-.053.52-.158a.756.756 0 0 0 .206-.398h.29v3.771h-.29zM-3142.791 195.104c0 .112.035.204.109.278.072.072.261.124.568.156v.29h-4.98v-.29c.306-.032.496-.084.569-.156a.384.384 0 0 0 .106-.278v-11.265a.379.379 0 0 0-.106-.277c-.073-.072-.264-.125-.569-.158v-.289h8.846c1.789 0 3.088.326 3.895.979.803.652 1.207 1.665 1.207 3.033 0 1.113-.326 1.982-.979 2.611-.654.628-1.479 1.08-2.479 1.354l2.854 4.013c.193.29.427.435.7.435v.29h-5.028v-.29c.355-.016.531-.16.531-.435 0-.032-.062-.145-.191-.339a38.081 38.081 0 0 0-1.126-1.582c-.233-.315-.458-.618-.675-.908a37.753 37.753 0 0 1-.569-.771 7.554 7.554 0 0 1-.313-.461h-2.369v4.06zm4.062-6.624c.708 0 1.196-.134 1.461-.399a1.28 1.28 0 0 0 0-1.862c-.265-.266-.753-.398-1.461-.398h-4.062v2.659h4.062zM-3116.274 195.538a.965.965 0 0 0 .289-.096c.049-.033.073-.073.073-.122 0-.032-.064-.196-.193-.495a91.874 91.874 0 0 1-.496-1.172 72.006 72.006 0 0 0-.712-1.644c-.274-.612-.554-1.249-.835-1.91-.283-.66-.566-1.313-.858-1.958-.289-.645-.556-1.24-.796-1.789a81.495 81.495 0 0 1-.969-2.272c-.111-.273-.201-.451-.264-.531a.433.433 0 0 0-.292-.146v-.289h4.955v.289c-.194.018-.322.049-.386.098a.232.232 0 0 0-.098.193c0 .049.035.149.109.303l.458.979 1.017 2.176c.442.951 1.043 2.247 1.801 3.891l1.729-3.807c.426-.943.758-1.664.99-2.163.234-.5.383-.842.447-1.027.064-.185.098-.311.098-.376 0-.079-.024-.14-.072-.18-.049-.041-.146-.068-.291-.086v-.289h4.156v.289a1.301 1.301 0 0 0-.229.098c-.056.033-.102.105-.132.217-.032.098-.13.331-.29.701-.164.371-.359.83-.593 1.378-.234.548-.491 1.157-.773 1.825-.283.668-.571 1.35-.87 2.043-.3.693-.588 1.369-.871 2.029-.281.662-.531 1.25-.748 1.766-.218.516-.393.942-.52 1.28-.131.339-.195.524-.195.556 0 .146.113.219.34.219v.313h-4.979v-.291zM-3091.148 194.788c-.058.161-.097.278-.121.352a.566.566 0 0 0-.035.156c0 .082.026.142.082.182.057.041.175.061.352.061v.29h-4.277v-.29c.177-.032.305-.084.387-.156.079-.074.161-.205.24-.399.031-.081.113-.299.242-.653.128-.354.299-.801.507-1.341l.703-1.801c.256-.661.515-1.333.771-2.019.26-.685.513-1.354.762-2.006.251-.652.472-1.236.665-1.753.194-.516.349-.935.471-1.257.121-.322.181-.491.181-.508 0-.08-.051-.136-.154-.169a2.318 2.318 0 0 0-.327-.073v-.289h6.31v.289a1.41 1.41 0 0 0-.316.073c-.079.033-.12.113-.12.241 0 .033.075.242.23.629.152.387.351.891.591 1.51.243.621.521 1.322.833 2.104.315.78.642 1.579.979 2.392.34.815.665 1.608.979 2.383.315.772.602 1.465.86 2.078.128.29.236.482.327.58a.448.448 0 0 0 .349.145v.29h-4.761v-.29c.305-.016.458-.113.458-.29a3.3 3.3 0 0 0-.12-.326c-.082-.202-3.673-9.536-3.673-9.536s-3.32 9.241-3.375 9.401zM-3063.406 195.538c.304-.032.495-.084.567-.156a.378.378 0 0 0 .108-.278v-9.04h-4.156c-.131 0-.227.044-.292.133-.063.089-.112.27-.145.543h-.289v-4.303h.289c.032.275.081.455.145.545.065.089.161.133.292.133h11.94c.127 0 .224-.044.289-.133.065-.09.112-.27.146-.545h.291v4.303h-.291c-.033-.273-.08-.454-.146-.543s-.162-.133-.289-.133h-4.158v9.04c0 .112.037.204.108.278.074.072.263.124.569.156v.29h-4.979v-.29zM-3040.168 195.538c.306-.032.496-.084.568-.156a.382.382 0 0 0 .108-.278v-11.265c0-.112-.036-.205-.108-.277s-.263-.125-.568-.158v-.289h4.979v.289c-.308.033-.495.086-.567.158a.373.373 0 0 0-.109.277v11.265c0 .112.036.204.109.278.072.072.26.124.567.156v.29h-4.979v-.29zM-3013.136 182.97c1.031 0 2.003.141 2.914.422.91.283 1.707.697 2.394 1.245a6.029 6.029 0 0 1 1.631 2.03c.402.807.604 1.74.604 2.804s-.202 1.999-.604 2.804a6.003 6.003 0 0 1-1.631 2.031 6.712 6.712 0 0 1-2.394 1.209c-.911.257-1.883.387-2.914.387-1.029 0-2.002-.13-2.912-.387a6.704 6.704 0 0 1-2.394-1.209 5.977 5.977 0 0 1-1.631-2.031c-.402-.805-.605-1.74-.605-2.804s.203-1.997.605-2.804a5.983 5.983 0 0 1 1.631-2.03 7.212 7.212 0 0 1 2.394-1.245 9.797 9.797 0 0 1 2.912-.422zm0 2.947c-.531 0-1.035.082-1.51.242a3.975 3.975 0 0 0-1.257.689c-.362.299-.653.67-.87 1.112-.219.442-.327.946-.327 1.51 0 .564.108 1.067.327 1.512.217.442.508.813.87 1.111.361.299.781.528 1.257.688.475.162.979.242 1.51.242.533 0 1.036-.08 1.511-.242.476-.16.895-.39 1.257-.688.363-.298.654-.669.871-1.111.218-.444.326-.947.326-1.512 0-.563-.108-1.067-.326-1.51a3.312 3.312 0 0 0-.871-1.112 3.966 3.966 0 0 0-1.257-.689 4.7 4.7 0 0 0-1.511-.242zM-2991.376 183.839a.373.373 0 0 0-.109-.277c-.071-.072-.262-.125-.566-.158v-.289h5.823v.289c-.271.018-.453.053-.543.109-.089.057-.133.125-.133.205 0 .033.104.178.315.436.208.258.483.58.821.967s.722.818 1.148 1.293a168.295 168.295 0 0 0 3.589 3.88v-6.453c0-.273-.168-.418-.508-.436v-.289h4.423v.289c-.304.033-.496.086-.566.158a.37.37 0 0 0-.109.277v11.265c0 .112.035.204.109.278.07.072.263.124.566.156v.29h-4.591v-.29c.224 0 .373-.023.446-.072a.22.22 0 0 0 .108-.193.346.346 0 0 0-.071-.182 4.12 4.12 0 0 0-.315-.375c-.161-.176-.397-.43-.713-.76-.313-.33-.729-.773-1.245-1.33s-1.152-1.248-1.908-2.08c-.758-.828-1.668-1.84-2.733-3.033v7.591a.38.38 0 0 0 .11.278c.07.072.262.124.566.156v.29h-4.591v-.29c.305-.032.495-.084.566-.156a.378.378 0 0 0 .109-.278v-11.266zM-2961.783 190.922c-.033.097-.049.266-.049.507 0 .161.147.343.446.545.298.201.685.391 1.16.567s1.02.326 1.632.447c.611.12 1.232.181 1.86.181 1.208 0 2.095-.141 2.659-.423.563-.281.846-.688.846-1.221 0-.29-.245-.495-.737-.616-.491-.121-1.107-.217-1.849-.29-.74-.073-1.538-.153-2.394-.241a12.1 12.1 0 0 1-2.393-.484c-.741-.232-1.357-.571-1.85-1.015-.489-.442-.737-1.052-.737-1.825 0-.611.142-1.168.424-1.668a3.895 3.895 0 0 1 1.185-1.28c.508-.354 1.124-.633 1.849-.835.725-.2 1.531-.301 2.417-.301.823 0 1.587.053 2.296.156.709.105 1.339.223 1.887.351.548.13 1.007.246 1.377.351.371.104.638.157.799.157.16 0 .29-.037.387-.108.096-.072.185-.158.266-.254l.265.096-1.667 3.361-.289-.146v-.266c0-.145-.157-.293-.472-.447a6.21 6.21 0 0 0-1.196-.41 15.112 15.112 0 0 0-1.621-.303 13.081 13.081 0 0 0-1.74-.121c-1.048 0-1.78.121-2.199.363-.42.242-.627.499-.627.773 0 .273.144.479.433.616.291.138.671.237 1.138.302.466.065.998.117 1.595.156a31.33 31.33 0 0 1 1.839.183c.626.081 1.24.194 1.836.337a5.681 5.681 0 0 1 1.595.643c.468.281.847.652 1.136 1.111.291.459.435 1.035.435 1.729a4.01 4.01 0 0 1-.324 1.57c-.219.516-.589.979-1.112 1.391-.525.41-1.227.736-2.104.979-.878.242-1.971.363-3.275.363-1.016 0-1.89-.049-2.623-.146s-1.357-.214-1.873-.351-.922-.262-1.221-.375c-.298-.112-.519-.168-.664-.168a.36.36 0 0 0-.254.097 4.033 4.033 0 0 0-.23.218l-.289-.073 1.788-4.303.239.12z"/>
  </g>
  <g fill="#FFF">
    <path d="M-3111.082 169.038a.547.547 0 0 0 .074-.287c0-.228-.143-.463-.49-.813l-7.998-8.338v8.934c0 .177.051.359.172.505h-2.155a.823.823 0 0 0 .151-.505v-10.975a.832.832 0 0 0-.151-.505h2.969a.692.692 0 0 0-.066.312c0 .244.17.516.59.934l7.562 7.852v-8.593c0-.1-.021-.321-.179-.505h2.161a.831.831 0 0 0-.15.505v10.975c0 .202.053.374.15.505h-2.64zM-3087.395 169.11c-.85 0-1.729-.117-2.615-.351a7.46 7.46 0 0 1-2.397-1.105 6.165 6.165 0 0 1-1.756-1.905c-.447-.754-.673-1.662-.673-2.703 0-1.04.226-1.949.673-2.701a6.147 6.147 0 0 1 1.756-1.906 8.106 8.106 0 0 1 2.405-1.145c.885-.256 1.761-.385 2.607-.385s1.724.129 2.605.385a8.1 8.1 0 0 1 2.406 1.145 6.147 6.147 0 0 1 1.757 1.906c.447.752.674 1.661.674 2.701 0 1.041-.227 1.949-.674 2.703a6.154 6.154 0 0 1-1.757 1.905 7.454 7.454 0 0 1-2.396 1.105c-.884.234-1.764.351-2.615.351zm0-10.708a6.46 6.46 0 0 0-1.947.308 5.973 5.973 0 0 0-1.764.889c-.527.39-.965.879-1.295 1.453-.337.584-.507 1.255-.507 1.994 0 .74.17 1.41.509 1.995a4.689 4.689 0 0 0 1.293 1.453 5.994 5.994 0 0 0 1.764.888c.645.205 1.3.308 1.947.308a6.42 6.42 0 0 0 1.947-.308 6.02 6.02 0 0 0 1.762-.888c.53-.392.966-.88 1.297-1.453.336-.586.507-1.257.507-1.995s-.171-1.408-.507-1.994a4.741 4.741 0 0 0-1.297-1.453 5.938 5.938 0 0 0-1.762-.889 6.455 6.455 0 0 0-1.947-.308z"/>
  </g>
  <g fill="#FFF">
    <path d="M-3212.574 211.474v9.691h8.68v-1.216h-7.131v-3.132h4.717v-1.231h-4.717v-2.898h6.689v-1.214zM-3186.352 218.734h-.037l-6.349-7.26h-1.92v9.691h1.341v-8.182l7.18 8.182h1.088v-9.691h-1.303zM-3166.783 212.685v-1.211h-9.471v1.211h3.962v8.48h1.548v-8.48zM-3158.124 211.474v9.691h8.7v-1.223h-7.132v-3.125h4.718v-1.22h-4.718v-2.912h6.691v-1.211zM-3130.84 221.165l-2.793-4.293c.921-.121 1.586-.412 1.99-.866.405-.452.607-1.069.607-1.843 0-.871-.264-1.538-.791-1.999-.528-.46-1.402-.69-2.617-.69h-5.732v9.691h1.551v-4.2h3.389l2.637 4.2h1.759zm-7.785-5.455v-2.984h3.943c.429 0 .779.028 1.059.084.275.055.494.141.653.258.16.116.271.26.331.432.062.174.092.383.092.629 0 .491-.152.877-.461 1.159-.306.284-.834.423-1.583.423h-4.034zM-3113.344 212.685v-1.211h-9.471v1.211l3.961.003v8.477h1.551l-.002-8.477zM-3086.813 211.474h1.545v9.691h-1.545zM-3066.778 218.734h-.037l-6.36-7.26h-1.899v9.691h1.321l.007-8.182 7.191 8.182h1.106v-9.691h-1.34zM-3046.559 211.474l-3.47 6.56-3.344-6.56h-1.915v9.691h1.298v-7.941l.018-.037 3.924 7.794 3.926-7.794.056.037-.012 7.941h1.551v-9.691zM-3034.418 211.474v9.691h8.658v-1.213l-7.132-.003v-3.133h4.717v-1.215h-4.717v-2.913h6.69v-1.214zM-3008.204 218.734h-.051l-6.359-7.26h-1.888v9.691h1.318v-8.182l7.191 8.182h1.088v-9.691h-1.299zM-2998.119 211.474v1.214h3.962v8.477h1.542l.005-8.477h3.962v-1.214z"/>
  </g>
  <path fill="none" stroke="#FFF" stroke-width="2" stroke-miterlimit="10" d="M-3289.629 144.749h377.827v97.107h-377.827z"/>
  <path d="M-1365.65-53.688c-1.212-2.463-9.037-18.294-9.037-18.294l-1.57-3.175-1.57 3.175s-7.797 15.771-9.037 18.291c-.744 1.51-1.121 3.193-1.121 5.007 0 6.467 5.26 11.728 11.729 11.728 6.467 0 11.728-5.261 11.728-11.729-.004-1.81-.378-3.493-1.122-5.003z" fill="#ED1C24"/>
  <g fill="#FFF">
    <path d="M-1374.521-53.808a1.8 1.8 0 0 1-3.599 0 1.8 1.8 0 1 1 3.599 0zM-1379.81-52.833a1.8 1.8 0 1 1-1.801 3.116 1.8 1.8 0 0 1 1.801-3.116zM-1381.608-47.764a1.796 1.796 0 0 1 2.456.659 1.8 1.8 0 1 1-2.456-.659z"/>
    <circle cx="-1376.321" cy="-43.67" r="1.799"/>
    <path d="M-1372.83-44.646a1.8 1.8 0 1 1 1.796-3.12 1.8 1.8 0 0 1-1.796 3.12zM-1371.03-49.715a1.8 1.8 0 1 1-1.8-3.118 1.796 1.796 0 0 1 2.454.66c.499.861.205 1.96-.654 2.458z"/>
    <path d="M-1367.221-52.915c-1.214-2.463-9.037-18.291-9.037-18.291s-7.797 15.769-9.039 18.288c-.625 1.274-.938 2.719-.938 4.232 0 5.51 4.467 9.977 9.978 9.977s9.977-4.467 9.977-9.977c-.002-1.513-.315-2.956-.941-4.229zm-9.138-14.433l4.668 9.767s-1.823-1.097-4.504-1.097c-2.68 0-4.631 1.097-4.631 1.097l4.467-9.767zm.037 26.806c-4.523 0-8.196-3.672-8.196-8.198a8.198 8.198 0 1 1 8.196 8.198z"/>
  </g>
  <g fill="#FFF">
    <path d="M5.371 47.124c0 .14.045.255.135.347.091.09.327.155.709.195v.362H0v-.362c.382-.04.618-.104.71-.195a.471.471 0 0 0 .135-.347v-14.06a.47.47 0 0 0-.135-.347c-.092-.09-.328-.156-.71-.197v-.36h11.042c2.231 0 3.852.406 4.858 1.222 1.003.813 1.506 2.077 1.506 3.786 0 1.389-.406 2.474-1.221 3.258-.814.785-1.845 1.348-3.092 1.69l3.56 5.008c.241.362.533.542.874.542v.362h-6.273v-.362c.442-.019.662-.2.662-.542 0-.041-.08-.18-.241-.423-.161-.242-.36-.532-.604-.875-.239-.342-.507-.71-.799-1.101-.293-.393-.571-.771-.844-1.132a78.67 78.67 0 0 1-.711-.964 10.216 10.216 0 0 1-.391-.575H5.371v5.07zm5.067-8.267c.886 0 1.492-.167 1.825-.499a1.59 1.59 0 0 0 .496-1.161c0-.443-.165-.83-.496-1.162-.333-.333-.939-.498-1.825-.498H5.371v3.319h5.067zM45.736 42.236a.956.956 0 0 0-.258-.498c-.131-.13-.346-.197-.648-.197h-5.611v2.807h9.685c.161 0 .28-.055.362-.167.079-.109.14-.355.182-.739h.36v5.159h-.36c-.042-.261-.103-.421-.182-.482-.082-.06-.201-.091-.362-.091H33.849v-.362c.384-.04.619-.104.708-.195a.473.473 0 0 0 .138-.347v-14.06a.472.472 0 0 0-.138-.347c-.089-.09-.324-.156-.708-.197v-.36h15.055c.161 0 .28-.054.362-.166.079-.112.14-.336.182-.68h.36v5.25h-.36c-.042-.342-.103-.567-.182-.679a.426.426 0 0 0-.362-.165h-9.685v2.504h5.611c.303 0 .518-.065.648-.196s.217-.297.258-.498h.361v4.706h-.361zM67.365 41.904c-.04.121-.057.332-.057.633 0 .2.182.427.555.679.372.252.854.488 1.448.709.592.221 1.272.407 2.036.559.765.15 1.537.226 2.322.226 1.51 0 2.615-.176 3.32-.529.703-.351 1.057-.86 1.057-1.523 0-.362-.309-.618-.921-.769-.616-.151-1.384-.271-2.308-.362-.927-.091-1.924-.191-2.988-.302a15.13 15.13 0 0 1-2.984-.603c-.928-.292-1.696-.714-2.311-1.268-.614-.553-.919-1.312-.919-2.277 0-.764.176-1.458.528-2.082a4.871 4.871 0 0 1 1.479-1.598c.633-.442 1.402-.79 2.307-1.042.906-.25 1.909-.377 3.016-.377 1.028 0 1.98.066 2.867.197a28.86 28.86 0 0 1 2.354.437c.682.161 1.257.307 1.719.438.463.13.793.195.995.195.2 0 .363-.046.482-.135a1.91 1.91 0 0 0 .332-.317l.334.121-2.082 4.194-.363-.182v-.332c0-.181-.195-.366-.589-.558-.391-.192-.89-.363-1.493-.513a18.755 18.755 0 0 0-2.021-.377 16.137 16.137 0 0 0-2.171-.151c-1.31 0-2.223.151-2.745.454-.523.301-.785.622-.785.964 0 .341.182.599.541.769.364.171.835.297 1.42.377.585.082 1.247.146 1.99.195.744.051 1.51.127 2.293.228.785.101 1.549.242 2.294.421.745.182 1.405.45 1.991.801a4.264 4.264 0 0 1 1.418 1.387c.361.572.542 1.292.542 2.157 0 .664-.135 1.317-.407 1.961-.27.643-.734 1.222-1.387 1.734-.654.513-1.528.92-2.624 1.222-1.098.303-2.462.453-4.091.453-1.266 0-2.355-.06-3.271-.181a18.989 18.989 0 0 1-2.338-.437 16.078 16.078 0 0 1-1.523-.468c-.373-.141-.648-.211-.83-.211-.12 0-.227.04-.317.122-.09.079-.187.17-.286.271l-.359-.091 2.23-5.37.3.151zM110.115 42.236a.941.941 0 0 0-.258-.498c-.131-.13-.346-.197-.648-.197h-5.611v2.807h9.685c.161 0 .28-.055.361-.167.08-.109.142-.355.183-.739h.361v5.159h-.361c-.041-.261-.103-.421-.183-.482-.081-.06-.2-.091-.361-.091H98.228v-.362c.384-.04.619-.104.708-.195a.469.469 0 0 0 .137-.347v-14.06a.467.467 0 0 0-.137-.347c-.089-.09-.324-.156-.708-.197v-.36h15.055c.161 0 .28-.054.361-.166.08-.112.142-.336.183-.68h.361v5.25h-.361c-.041-.342-.103-.567-.183-.679a.423.423 0 0 0-.361-.165h-9.685v2.504h5.611c.303 0 .518-.065.648-.196a.941.941 0 0 0 .258-.498h.361v4.706h-.361zM135.787 47.124c0 .14.043.255.137.347.09.09.325.155.709.195v.362h-6.216v-.362c.381-.04.619-.104.71-.195a.478.478 0 0 0 .134-.347v-14.06a.477.477 0 0 0-.134-.347c-.091-.09-.329-.156-.71-.197v-.36h11.04c2.232 0 3.854.406 4.861 1.222 1.002.813 1.506 2.077 1.506 3.786 0 1.389-.406 2.474-1.222 3.258-.815.785-1.845 1.348-3.093 1.69l3.562 5.008c.241.362.532.542.873.542v.362h-6.276v-.362c.445-.019.664-.2.664-.542 0-.041-.077-.18-.238-.423a49.629 49.629 0 0 0-1.405-1.976c-.292-.393-.571-.771-.843-1.132a56.23 56.23 0 0 1-.711-.964 10.216 10.216 0 0 1-.391-.575h-2.957v5.07zm5.068-8.267c.885 0 1.494-.167 1.824-.499.333-.331.5-.718.5-1.161 0-.443-.167-.83-.5-1.162-.33-.333-.939-.498-1.824-.498h-5.068v3.319h5.068zM168.882 47.666c.183-.04.3-.079.361-.119.062-.041.091-.092.091-.153 0-.04-.08-.245-.241-.619-.161-.371-.368-.859-.619-1.462s-.548-1.287-.888-2.051a131.8 131.8 0 0 1-1.043-2.384 141.4 141.4 0 0 0-1.071-2.444c-.36-.805-.692-1.549-.993-2.232-.302-.684-.559-1.277-.771-1.78s-.358-.854-.438-1.056c-.14-.342-.252-.563-.329-.664a.541.541 0 0 0-.365-.182v-.36h6.185v.361c-.242.021-.401.061-.48.122a.285.285 0 0 0-.122.241c0 .061.043.187.137.377l.571 1.222c.293.623.715 1.529 1.269 2.715.553 1.187 1.302 2.805 2.248 4.856l2.157-4.751c.531-1.177.946-2.077 1.236-2.7.292-.624.477-1.05.558-1.282.08-.23.122-.387.122-.468 0-.1-.03-.175-.091-.226-.06-.05-.183-.085-.362-.107v-.36h5.187v.361c-.12.042-.215.082-.284.122-.07.042-.127.131-.166.271-.04.121-.161.412-.361.874a174.62 174.62 0 0 0-.74 1.72c-.292.683-.612 1.445-.965 2.278-.354.835-.713 1.685-1.086 2.549-.373.866-.733 1.71-1.087 2.534-.352.825-.663 1.559-.934 2.203a42.323 42.323 0 0 0-.648 1.598c-.164.422-.245.653-.245.694 0 .183.143.272.425.272v.392h-6.215v-.362zM200.242 46.73c-.072.201-.121.347-.151.438a.702.702 0 0 0-.044.195c0 .102.032.176.102.227.071.05.219.075.438.075v.362h-5.338v-.362c.221-.04.381-.104.482-.195.1-.092.201-.256.301-.498.038-.101.141-.373.302-.815.159-.442.373-1 .633-1.674.264-.674.556-1.422.877-2.248.32-.826.643-1.664.963-2.519l.951-2.504c.312-.815.588-1.544.829-2.188.243-.644.437-1.167.589-1.569.15-.401.226-.613.226-.634 0-.099-.063-.169-.192-.21a2.954 2.954 0 0 0-.409-.092v-.359h7.875v.361a1.656 1.656 0 0 0-.396.092c-.099.041-.149.141-.149.302 0 .041.095.301.288.785.189.482.438 1.111.738 1.884.302.775.648 1.649 1.039 2.626.394.974.8 1.971 1.223 2.985.424 1.017.829 2.007 1.221 2.973.394.964.75 1.829 1.073 2.593.159.363.295.604.408.725.109.12.255.18.436.18v.362h-5.942v-.362c.381-.019.572-.141.572-.362 0-.019-.051-.155-.15-.407-.102-.252-4.584-11.902-4.584-11.902s-4.142 11.536-4.211 11.735zM234.866 47.666c.379-.04.618-.104.708-.195a.472.472 0 0 0 .136-.347V35.841h-5.188c-.163 0-.282.055-.364.165-.079.112-.141.337-.181.679h-.36v-5.37h.36c.04.343.102.568.181.68.082.111.201.166.364.166h14.903c.158 0 .279-.054.359-.166.083-.112.141-.336.182-.68h.363v5.37h-.363c-.041-.342-.099-.567-.182-.679-.08-.11-.201-.165-.359-.165h-5.19v11.283c0 .14.047.255.136.347.093.09.328.155.71.195v.362h-6.215v-.362zM263.869 47.666c.383-.04.619-.104.711-.195a.475.475 0 0 0 .135-.347v-14.06a.473.473 0 0 0-.135-.347c-.092-.09-.328-.156-.711-.197v-.36h6.216v.361c-.384.042-.618.107-.709.197a.469.469 0 0 0-.136.347v14.059c0 .14.045.255.136.347.091.09.325.155.709.195v.362h-6.216v-.362zM297.609 31.979c1.286 0 2.499.176 3.636.527 1.137.354 2.131.872 2.988 1.555a7.524 7.524 0 0 1 2.035 2.535c.501 1.006.755 2.172.755 3.499 0 1.328-.254 2.495-.755 3.5a7.523 7.523 0 0 1-2.035 2.534c-.857.685-1.852 1.188-2.988 1.509s-2.35.482-3.636.482c-1.285 0-2.499-.161-3.635-.482-1.137-.321-2.134-.824-2.988-1.509a7.463 7.463 0 0 1-2.035-2.534c-.502-1.005-.756-2.172-.756-3.5 0-1.327.254-2.493.756-3.499s1.18-1.851 2.035-2.535c.854-.683 1.852-1.201 2.988-1.555a12.227 12.227 0 0 1 3.635-.527zm0 3.68c-.664 0-1.293.102-1.886.302a4.934 4.934 0 0 0-1.568.86 4.148 4.148 0 0 0-1.086 1.389c-.272.553-.408 1.182-.408 1.884 0 .705.136 1.333.408 1.887a4.128 4.128 0 0 0 1.086 1.387c.451.373.975.659 1.568.859.593.202 1.222.303 1.886.303s1.293-.101 1.885-.303a4.9 4.9 0 0 0 1.569-.859 4.12 4.12 0 0 0 1.087-1.387c.271-.554.406-1.183.406-1.887 0-.703-.135-1.332-.406-1.884s-.634-1.016-1.087-1.389a4.971 4.971 0 0 0-1.569-.86 5.827 5.827 0 0 0-1.885-.302zM324.767 33.064a.47.47 0 0 0-.136-.347c-.09-.09-.327-.156-.707-.197v-.36h7.268v.361c-.34.021-.566.067-.678.137-.11.07-.166.156-.166.256 0 .041.131.221.395.542.259.322.603.724 1.023 1.206a238.086 238.086 0 0 0 3.048 3.394c.544.593 1.065 1.157 1.569 1.69l1.297 1.372v-8.054c0-.341-.21-.522-.635-.544v-.36h5.521v.361c-.379.042-.619.107-.707.197a.461.461 0 0 0-.136.347v14.059c0 .14.043.255.136.347.088.09.328.155.707.195v.362h-5.729v-.362c.279 0 .466-.029.557-.09a.273.273 0 0 0 .135-.241.43.43 0 0 0-.088-.227 4.923 4.923 0 0 0-.395-.468 50.954 50.954 0 0 0-.89-.949c-.391-.412-.91-.965-1.554-1.66a467.638 467.638 0 0 1-5.793-6.381v9.474c0 .14.046.255.137.347.088.09.327.155.707.195v.362h-5.729v-.362c.38-.04.617-.104.707-.195a.472.472 0 0 0 .136-.347v-14.06zM361.701 41.904c-.042.121-.061.332-.061.633 0 .2.183.427.557.679.371.252.854.488 1.447.709s1.273.407 2.038.559c.762.15 1.538.226 2.321.226 1.508 0 2.614-.176 3.318-.529.704-.351 1.055-.86 1.055-1.523 0-.362-.305-.618-.919-.769-.613-.151-1.383-.271-2.308-.362a544.18 544.18 0 0 1-2.987-.302 15.126 15.126 0 0 1-2.985-.603c-.926-.292-1.695-.714-2.309-1.268-.611-.553-.921-1.312-.921-2.277 0-.764.177-1.458.529-2.082a4.871 4.871 0 0 1 1.479-1.598c.634-.442 1.402-.79 2.307-1.042.905-.25 1.912-.377 3.017-.377 1.027 0 1.981.066 2.866.197s1.671.276 2.354.437a40.39 40.39 0 0 1 1.719.438c.463.13.796.195.997.195a.796.796 0 0 0 .482-.135 2.1 2.1 0 0 0 .331-.317l.331.121-2.081 4.194-.361-.182v-.332c0-.181-.195-.366-.588-.558-.394-.192-.891-.363-1.493-.513a18.87 18.87 0 0 0-2.022-.377 16.155 16.155 0 0 0-2.173-.151c-1.308 0-2.222.151-2.745.454-.523.301-.783.622-.783.964 0 .341.181.599.541.769.363.171.838.297 1.42.377.582.082 1.245.146 1.99.195.744.051 1.508.127 2.296.228.781.101 1.547.242 2.29.421.744.182 1.408.45 1.991.801a4.215 4.215 0 0 1 1.417 1.387c.364.572.543 1.292.543 2.157 0 .664-.135 1.317-.404 1.961-.273.643-.736 1.222-1.389 1.734-.655.513-1.531.92-2.626 1.222-1.095.303-2.46.453-4.087.453-1.269 0-2.359-.06-3.275-.181a18.914 18.914 0 0 1-2.336-.437 16.302 16.302 0 0 1-1.524-.468c-.372-.141-.647-.211-.829-.211a.451.451 0 0 0-.316.122c-.092.079-.186.17-.287.271l-.361-.091 2.232-5.37.302.151z"/>
  </g>
  <g fill="#FFF">
    <path d="M175.362 15.138a.68.68 0 0 0 .093-.358c0-.284-.178-.577-.611-1.015l-9.982-10.407v11.15c0 .221.063.448.214.63h-2.689c.123-.163.189-.377.189-.63V.811c0-.253-.066-.465-.189-.629h3.705a.852.852 0 0 0-.082.389c0 .306.212.644.735 1.167l9.438 9.798V.811c0-.124-.026-.4-.223-.629h2.697a1.033 1.033 0 0 0-.188.629v13.697c0 .253.065.467.188.63h-3.295zM204.927 15.229c-1.061 0-2.158-.147-3.265-.438a9.327 9.327 0 0 1-2.992-1.379 7.686 7.686 0 0 1-2.191-2.379c-.558-.94-.839-2.074-.839-3.373s.281-2.434.839-3.372a7.677 7.677 0 0 1 2.191-2.379c.9-.631 1.911-1.112 3.003-1.428C202.777.162 203.87 0 204.927 0s2.151.162 3.252.48a10.09 10.09 0 0 1 3.003 1.428 7.663 7.663 0 0 1 2.192 2.379c.56.938.842 2.074.842 3.372s-.282 2.432-.842 3.373a7.684 7.684 0 0 1-2.192 2.379 9.29 9.29 0 0 1-2.991 1.379 12.789 12.789 0 0 1-3.264.439zm0-13.365c-.807 0-1.625.129-2.431.383a7.457 7.457 0 0 0-2.201 1.109 5.926 5.926 0 0 0-1.616 1.813c-.42.73-.632 1.567-.632 2.49 0 .923.212 1.76.635 2.489a5.829 5.829 0 0 0 1.613 1.813c.651.479 1.39.852 2.201 1.109a8.048 8.048 0 0 0 2.431.384c.81 0 1.625-.129 2.431-.384a7.512 7.512 0 0 0 2.198-1.109 5.896 5.896 0 0 0 1.619-1.813c.419-.731.632-1.568.632-2.489s-.213-1.759-.632-2.49a5.911 5.911 0 0 0-1.619-1.813 7.464 7.464 0 0 0-2.198-1.109 8.092 8.092 0 0 0-2.431-.383z"/>
  </g>
  <g fill="#FFF">
    <path d="M48.562 66.854V78.95h10.833v-1.517h-8.901v-3.909h5.889v-1.538h-5.889v-3.615h8.349v-1.517zM81.288 75.916h-.046l-7.924-9.062h-2.397V78.95h1.674V68.739l8.962 10.211h1.359V66.854h-1.628zM105.713 68.364v-1.51H93.891v1.51h4.945V78.95h1.933V68.364zM116.519 66.854V78.95h10.858v-1.527h-8.9v-3.899h5.888v-1.525h-5.888v-3.635h8.35v-1.51zM150.572 78.95l-3.486-5.357c1.149-.152 1.979-.515 2.485-1.083.506-.563.758-1.334.758-2.3 0-1.088-.33-1.92-.986-2.495-.661-.572-1.751-.86-3.269-.86h-7.154V78.95h1.937v-5.243h4.229l3.289 5.243h2.197zm-9.716-6.808v-3.725h4.922c.535 0 .972.034 1.32.104.343.067.616.174.815.321a1.1 1.1 0 0 1 .412.539 2.3 2.3 0 0 1 .117.784c0 .613-.191 1.094-.576 1.447-.381.354-1.041.528-1.977.528h-5.033zM172.408 68.364v-1.51h-11.819v1.51l4.944.007V78.95h1.935l-.002-10.579zM205.522 66.854h1.929V78.95h-1.929zM230.527 75.916h-.047l-7.937-9.062h-2.371V78.95h1.651l.009-10.211 8.975 10.211h1.38V66.854h-1.672zM255.763 66.854l-4.331 8.188-4.174-8.188h-2.391V78.95h1.62v-9.912l.023-.046 4.898 9.73 4.901-9.73.07.046-.016 9.912h1.936V66.854zM270.916 66.854V78.95h10.806v-1.514l-8.901-.003v-3.912h5.887v-1.516h-5.887v-3.634h8.349v-1.517zM303.634 75.916h-.064l-7.937-9.062h-2.356V78.95h1.645V68.739l8.974 10.211h1.358V66.854h-1.62zM316.22 66.854v1.517h4.945V78.95h1.924l.007-10.579h4.944v-1.517z"/>
  </g>
  <g fill="#ED1C24">
    <path d="M188.217 85.605c-5.831 0-10.562 4.729-10.562 10.563s4.731 10.568 10.562 10.568c5.842 0 10.57-4.733 10.57-10.568s-4.728-10.563-10.57-10.563zm-4.492 15.842a2.326 2.326 0 0 1-3.174-.85 2.322 2.322 0 0 1 .854-3.171 2.313 2.313 0 0 1 3.166.849 2.323 2.323 0 0 1-.846 3.172zm.845-7.385a2.318 2.318 0 0 1-3.166.85 2.324 2.324 0 0 1-.854-3.17 2.32 2.32 0 1 1 4.02 2.32zm3.647 10.962a2.319 2.319 0 0 1-2.315-2.321 2.32 2.32 0 0 1 4.637 0 2.322 2.322 0 0 1-2.322 2.321zm0-13.066a2.318 2.318 0 0 1-2.315-2.322 2.319 2.319 0 0 1 4.637 0 2.32 2.32 0 0 1-2.322 2.322zm7.666 8.64a2.315 2.315 0 0 1-3.163.85 2.32 2.32 0 1 1 2.321-4.021 2.32 2.32 0 0 1 .842 3.171zm-.842-5.686a2.323 2.323 0 0 1-3.173-.85 2.317 2.317 0 0 1 .852-3.17 2.314 2.314 0 0 1 3.163.85 2.32 2.32 0 0 1-.842 3.17zM194.188 84.771l-6.019-12.591-5.757 12.591s2.516-1.414 5.969-1.414c3.457 0 5.807 1.414 5.807 1.414z"/>
    <path d="M201.975 89.79a37027.352 37027.352 0 0 0-11.649-23.582l-2.024-4.093-2.024 4.093s-10.051 20.33-11.649 23.577c-.959 1.946-1.445 4.116-1.445 6.453 0 8.339 6.781 15.118 15.119 15.118 8.336 0 15.119-6.779 15.119-15.119-.004-2.33-.488-4.5-1.447-6.447zm-13.674 19.312c-7.102 0-12.86-5.759-12.86-12.863 0-1.951.403-3.812 1.208-5.454 1.602-3.248 11.652-23.574 11.652-23.574s10.086 20.402 11.648 23.577c.809 1.643 1.212 3.5 1.212 5.451 0 7.104-5.755 12.863-12.86 12.863z"/>
  </g>
  <g>
    <path fill="none" stroke="#000" stroke-width="2" stroke-miterlimit="10" d="M-739.258 7.655h435.117v102.822h-435.117z"/>
    <path fill="#ED1C24" d="M-522.418 6.538h1.438v75.316h-1.438z"/>
    <path d="M-523.436 82.485c.686-1.391 1.018-2.592 1.018-4.066h1.438c0 1.475.33 2.676 1.018 4.066h-3.474z" fill="#ED1C24"/>
    <path d="M-690.492 65.14c0 .131.041.236.125.32s.301.145.654.182v.334h-5.734v-.334c.352-.037.57-.098.654-.182s.125-.189.125-.32V52.169c0-.131-.041-.236-.125-.32s-.303-.145-.654-.182v-.334h10.188c2.061 0 3.555.375 4.482 1.127.926.752 1.391 1.918 1.391 3.494 0 1.281-.375 2.283-1.127 3.006-.752.725-1.701 1.244-2.852 1.559l3.283 4.621c.223.336.492.502.807.502v.334h-5.789v-.334c.408-.018.611-.186.611-.502 0-.037-.074-.166-.223-.389s-.332-.492-.557-.807a40.118 40.118 0 0 0-.736-1.016c-.271-.363-.527-.713-.779-1.045a59.24 59.24 0 0 1-.656-.891 8.276 8.276 0 0 1-.359-.529h-2.729v4.677zm4.676-7.627c.818 0 1.377-.152 1.684-.459s.459-.662.459-1.072c0-.408-.152-.766-.459-1.07-.307-.307-.865-.461-1.684-.461h-4.676v3.062h4.676zM-653.246 60.63a.88.88 0 0 0-.238-.459c-.121-.119-.318-.182-.598-.182h-5.178v2.59h8.936c.148 0 .26-.051.334-.154.074-.1.129-.328.168-.682h.332v4.762h-.332c-.039-.242-.094-.389-.168-.445s-.186-.084-.334-.084h-13.891v-.334c.354-.037.57-.098.652-.182a.432.432 0 0 0 .127-.32V52.169a.432.432 0 0 0-.127-.32c-.082-.084-.299-.145-.652-.182v-.334h13.891c.148 0 .26-.051.334-.152.074-.104.129-.311.168-.627h.332v4.844h-.332c-.039-.316-.094-.523-.168-.627-.074-.1-.186-.152-.334-.152h-8.936v2.311h5.178c.279 0 .477-.061.598-.182a.864.864 0 0 0 .238-.459h.334v4.342h-.334zM-633.289 60.325c-.037.111-.053.305-.053.584 0 .186.168.395.512.627s.789.449 1.338.654c.545.203 1.174.375 1.877.514.707.139 1.42.209 2.145.209 1.393 0 2.412-.162 3.062-.488.648-.322.975-.793.975-1.404 0-.334-.283-.57-.85-.709-.568-.141-1.275-.25-2.129-.336-.855-.084-1.775-.176-2.758-.277s-1.9-.287-2.754-.557c-.855-.27-1.564-.658-2.131-1.17-.566-.51-.848-1.211-.848-2.102 0-.705.162-1.344.486-1.92s.781-1.066 1.365-1.475 1.295-.729 2.129-.961c.836-.232 1.762-.348 2.783-.348.949 0 1.826.061 2.645.18.816.121 1.541.256 2.172.404.629.148 1.16.283 1.586.404.428.119.732.18.918.18s.336-.043.445-.125a1.77 1.77 0 0 0 .307-.293l.309.111-1.922 3.871-.334-.168v-.307c0-.166-.182-.338-.545-.514-.359-.178-.82-.336-1.377-.475s-1.178-.254-1.865-.348a14.76 14.76 0 0 0-2.004-.139c-1.207 0-2.051.139-2.533.418-.482.277-.723.574-.723.891 0 .314.166.553.498.709.336.158.771.273 1.311.348.539.076 1.15.135 1.836.18.688.049 1.393.117 2.115.211.725.092 1.43.223 2.117.389a6.585 6.585 0 0 1 1.838.738c.537.324.973.752 1.309 1.281.334.527.5 1.191.5 1.99 0 .611-.125 1.215-.377 1.809-.248.594-.676 1.127-1.279 1.6-.604.475-1.41.85-2.42 1.129-1.014.279-2.271.418-3.775.418-1.168 0-2.174-.057-3.018-.168a17.668 17.668 0 0 1-2.158-.402 15.335 15.335 0 0 1-1.406-.432c-.344-.131-.598-.195-.766-.195a.43.43 0 0 0-.293.111 7.104 7.104 0 0 0-.264.25l-.332-.084 2.059-4.955.277.142zM-593.844 60.63a.877.877 0 0 0-.236-.459c-.121-.119-.32-.182-.6-.182h-5.178v2.59h8.938c.148 0 .258-.051.332-.154.074-.1.131-.328.17-.682h.332v4.762h-.332c-.039-.242-.096-.389-.17-.445s-.184-.084-.332-.084h-13.893v-.334c.355-.037.572-.098.654-.182a.432.432 0 0 0 .127-.32V52.169a.432.432 0 0 0-.127-.32c-.082-.084-.299-.145-.654-.182v-.334h13.893c.148 0 .258-.051.332-.152.074-.104.131-.311.17-.627h.332v4.844h-.332c-.039-.316-.096-.523-.17-.627-.074-.1-.184-.152-.332-.152h-8.938v2.311h5.178c.279 0 .479-.061.6-.182a.862.862 0 0 0 .236-.459h.334v4.342h-.334zM-570.154 65.14c0 .131.039.236.125.32.084.084.301.145.654.182v.334h-5.734v-.334c.352-.037.57-.098.654-.182a.437.437 0 0 0 .123-.32V52.169a.437.437 0 0 0-.123-.32c-.084-.084-.303-.145-.654-.182v-.334h10.186c2.061 0 3.557.375 4.486 1.127.924.752 1.389 1.918 1.389 3.494 0 1.281-.375 2.283-1.127 3.006-.752.725-1.701 1.244-2.854 1.559l3.287 4.621c.223.336.49.502.805.502v.334h-5.791v-.334c.41-.018.613-.186.613-.502 0-.037-.072-.166-.221-.389a46.212 46.212 0 0 0-1.297-1.823c-.27-.363-.527-.713-.777-1.045-.252-.334-.471-.631-.656-.891s-.305-.436-.359-.529h-2.729v4.677zm4.675-7.627c.816 0 1.379-.152 1.684-.459.307-.307.461-.662.461-1.072a1.46 1.46 0 0 0-.461-1.07c-.305-.307-.867-.461-1.684-.461h-4.676v3.062h4.676zM-539.617 65.642c.168-.037.275-.074.332-.111s.084-.084.084-.141c0-.035-.074-.227-.223-.57-.148-.342-.34-.793-.57-1.35a86.095 86.095 0 0 0-.82-1.893c-.316-.705-.637-1.438-.961-2.199-.326-.76-.652-1.512-.988-2.254-.334-.744-.641-1.43-.918-2.061s-.516-1.18-.711-1.643-.33-.789-.404-.975c-.129-.314-.232-.52-.303-.611a.502.502 0 0 0-.338-.168v-.334h5.707v.334c-.223.02-.371.055-.443.111a.267.267 0 0 0-.113.223c0 .057.041.172.127.348l.527 1.129c.27.574.658 1.41 1.17 2.504.51 1.096 1.201 2.59 2.074 4.482.834-1.838 1.496-3.299 1.99-4.385.49-1.086.873-1.916 1.141-2.49.27-.576.441-.971.516-1.184s.111-.357.111-.432c0-.092-.027-.162-.082-.209-.057-.047-.17-.078-.336-.098v-.334h4.787v.334a1.518 1.518 0 0 0-.264.111c-.064.039-.117.121-.152.25-.037.113-.148.381-.334.807a480.285 480.285 0 0 0-1.573 3.69c-.326.77-.658 1.555-1.002 2.352-.346.799-.678 1.578-1.004 2.34-.324.76-.611 1.438-.861 2.031s-.453 1.086-.598 1.475c-.152.391-.227.604-.227.641 0 .168.131.252.393.252v.361h-5.734v-.333zM-510.682 64.778c-.066.186-.111.32-.139.404a.612.612 0 0 0-.041.18c0 .094.029.162.094.209.066.047.201.07.404.07v.334h-4.926v-.334c.205-.037.352-.098.445-.182.092-.084.186-.236.277-.459.035-.092.131-.344.279-.752.146-.408.344-.922.584-1.545l.809-2.074c.295-.762.594-1.535.889-2.322a2722.194 2722.194 0 0 1 1.643-4.331c.225-.594.402-1.076.543-1.447.139-.371.209-.566.209-.586 0-.09-.059-.156-.178-.193a2.782 2.782 0 0 0-.377-.084v-.334h7.266v.334c-.15.02-.27.047-.365.084-.09.037-.137.131-.137.277 0 .039.086.279.266.725l.68 1.738c.279.717.6 1.523.959 2.424.363.898.738 1.818 1.129 2.754.391.939.766 1.854 1.127 2.744.363.891.691 1.688.99 2.393.146.334.271.557.377.67a.52.52 0 0 0 .4.166v.334h-5.482v-.334c.352-.018.527-.131.527-.334 0-.018-.047-.145-.139-.377-.094-.232-4.229-10.98-4.229-10.98s-3.819 10.643-3.884 10.828zM-478.732 65.642c.35-.037.57-.098.652-.182a.43.43 0 0 0 .125-.32V54.73h-4.785c-.152 0-.262.051-.338.152-.072.104-.129.311-.166.627h-.332v-4.955h.332c.037.316.094.523.166.627.076.102.186.152.338.152h13.75c.146 0 .258-.051.332-.152.076-.104.131-.311.168-.627h.336v4.955h-.336c-.037-.316-.092-.523-.168-.627-.074-.102-.186-.152-.332-.152h-4.789v10.41c0 .131.043.236.125.32.086.084.303.145.656.182v.334h-5.734v-.334zM-451.971 65.642c.352-.037.57-.098.654-.182s.125-.189.125-.32V52.169c0-.131-.041-.236-.125-.32s-.303-.145-.654-.182v-.334h5.734v.334c-.354.037-.57.098-.654.182s-.125.189-.125.32V65.14c0 .131.041.236.125.32s.301.145.654.182v.334h-5.734v-.334zM-420.84 51.167c1.188 0 2.307.162 3.355.484a8.34 8.34 0 0 1 2.758 1.436 6.938 6.938 0 0 1 1.877 2.338c.463.93.697 2.004.697 3.229 0 1.227-.234 2.303-.697 3.23a6.938 6.938 0 0 1-1.877 2.338 7.753 7.753 0 0 1-2.758 1.393 12.346 12.346 0 0 1-3.355.445c-1.186 0-2.305-.15-3.354-.445-1.049-.297-1.969-.762-2.756-1.393-.791-.631-1.416-1.41-1.879-2.338s-.697-2.004-.697-3.23c0-1.225.234-2.299.697-3.229a6.872 6.872 0 0 1 1.879-2.338c.787-.631 1.707-1.109 2.756-1.436a11.38 11.38 0 0 1 3.354-.484zm0 3.395c-.611 0-1.191.094-1.738.279a4.519 4.519 0 0 0-1.447.793 3.802 3.802 0 0 0-1.002 1.281c-.252.51-.377 1.09-.377 1.738 0 .65.125 1.23.377 1.742.25.51.584.936 1.002 1.279.416.344.898.607 1.447.793a5.365 5.365 0 0 0 1.738.279c.613 0 1.193-.094 1.74-.279s1.029-.449 1.447-.793.754-.77 1.004-1.279c.25-.512.375-1.092.375-1.742 0-.648-.125-1.229-.375-1.738s-.586-.938-1.004-1.281-.9-.607-1.447-.793-1.127-.279-1.74-.279zM-395.781 52.169a.43.43 0 0 0-.125-.32c-.082-.084-.301-.145-.652-.182v-.334h6.707v.334c-.314.02-.523.061-.627.125-.102.066-.152.145-.152.236 0 .039.121.205.363.502.24.297.557.668.945 1.113a210.224 210.224 0 0 0 2.812 3.131c.502.547.982 1.068 1.447 1.559.465.492.863.916 1.197 1.268v-7.432c0-.314-.193-.482-.586-.502v-.334h5.094v.334c-.35.037-.57.098-.652.182a.423.423 0 0 0-.125.32V65.14c0 .131.039.236.125.32.082.084.303.145.652.182v.334h-5.287v-.334c.258 0 .43-.027.514-.084a.253.253 0 0 0 .125-.223.394.394 0 0 0-.082-.209 4.63 4.63 0 0 0-.363-.432 53.135 53.135 0 0 0-.82-.875c-.361-.381-.84-.891-1.434-1.533a390.48 390.48 0 0 1-5.345-5.887v8.74c0 .131.043.236.127.32.08.084.301.145.652.182v.334h-5.287v-.334c.352-.037.57-.098.652-.182a.43.43 0 0 0 .125-.32v-12.97zM-361.701 60.325c-.037.111-.055.305-.055.584 0 .186.168.395.514.627.342.232.787.449 1.336.654.547.203 1.174.375 1.879.514.703.139 1.42.209 2.143.209 1.391 0 2.412-.162 3.062-.488.648-.322.973-.793.973-1.404 0-.334-.281-.57-.848-.709-.566-.141-1.275-.25-2.129-.336-.854-.084-1.771-.176-2.758-.277a13.846 13.846 0 0 1-2.754-.557c-.854-.27-1.564-.658-2.131-1.17-.562-.51-.85-1.211-.85-2.102 0-.705.164-1.344.488-1.92.326-.576.781-1.066 1.365-1.475s1.293-.729 2.129-.961c.834-.232 1.764-.348 2.783-.348.947 0 1.828.061 2.645.18.816.121 1.541.256 2.172.404s1.16.283 1.586.404c.428.119.734.18.92.18a.736.736 0 0 0 .445-.125c.109-.084.213-.182.307-.293l.305.111-1.92 3.871-.334-.168v-.307c0-.166-.18-.338-.543-.514-.363-.178-.822-.336-1.377-.475a17.735 17.735 0 0 0-1.867-.348 14.749 14.749 0 0 0-2.004-.139c-1.207 0-2.051.139-2.533.418-.482.277-.723.574-.723.891 0 .314.166.553.5.709.334.158.771.273 1.309.348.537.076 1.15.135 1.838.18.686.049 1.391.117 2.117.211.721.092 1.428.223 2.113.389a6.536 6.536 0 0 1 1.838.738c.539.324.975.752 1.307 1.281.336.527.502 1.191.502 1.99 0 .611-.125 1.215-.373 1.809-.252.594-.68 1.127-1.281 1.6-.605.475-1.414.85-2.424 1.129s-2.27.418-3.771.418c-1.17 0-2.176-.057-3.021-.168a17.702 17.702 0 0 1-2.156-.402 15.536 15.536 0 0 1-1.406-.432c-.342-.131-.598-.195-.764-.195-.113 0-.209.037-.293.111s-.172.158-.266.25l-.332-.084 2.059-4.955.278.142z"/>
    <g>
      <path d="M-533.639 35.628a.63.63 0 0 0 .086-.332c0-.262-.164-.531-.564-.936l-9.211-9.604v10.289a.91.91 0 0 0 .197.582h-2.48a.951.951 0 0 0 .174-.582V22.407a.95.95 0 0 0-.174-.58h3.418a.78.78 0 0 0-.076.357c0 .283.195.594.68 1.076l8.707 9.041v-9.895a.9.9 0 0 0-.205-.58h2.488a.962.962 0 0 0-.172.58v12.639c0 .234.061.432.172.582h-3.04zM-506.359 35.712c-.979 0-1.99-.137-3.012-.404a8.586 8.586 0 0 1-2.76-1.273 7.094 7.094 0 0 1-2.023-2.195c-.514-.867-.773-1.914-.773-3.111 0-1.199.26-2.246.773-3.111a7.072 7.072 0 0 1 2.023-2.195 9.309 9.309 0 0 1 2.77-1.318 10.808 10.808 0 0 1 3.002-.443c.977 0 1.986.148 3.002.443a9.297 9.297 0 0 1 2.77 1.318c.82.574 1.5 1.312 2.023 2.195.516.865.777 1.912.777 3.111 0 1.197-.262 2.244-.777 3.111a7.065 7.065 0 0 1-2.023 2.195 8.545 8.545 0 0 1-2.76 1.273 11.904 11.904 0 0 1-3.012.404zm0-12.332a7.44 7.44 0 0 0-2.242.354 6.842 6.842 0 0 0-2.031 1.023 5.441 5.441 0 0 0-1.49 1.672c-.389.674-.584 1.447-.584 2.299s.195 1.623.586 2.297c.377.66.879 1.223 1.488 1.674a6.97 6.97 0 0 0 2.031 1.021 7.401 7.401 0 0 0 2.242.355c.748 0 1.5-.119 2.244-.355s1.43-.58 2.027-1.021a5.458 5.458 0 0 0 1.494-1.674c.387-.676.584-1.447.584-2.297 0-.852-.197-1.623-.584-2.299a5.454 5.454 0 0 0-1.494-1.672 6.832 6.832 0 0 0-2.027-1.023 7.453 7.453 0 0 0-2.244-.354z"/>
    </g>
    <g>
      <path d="M-558.357 86.401c0-.283-.033-.521-.105-.723-.07-.197-.197-.363-.381-.498s-.436-.234-.754-.297a6.548 6.548 0 0 0-1.219-.096h-4.541v3.438h4.646c.861 0 1.471-.162 1.822-.488.356-.326.532-.769.532-1.336z" fill="none"/>
      <path d="M-650.52 83.347v11.16h9.997v-1.401h-8.213v-3.605h5.433v-1.42h-5.433v-3.336h7.705v-1.398zM-620.32 91.708h-.043l-7.313-8.361h-2.211v11.16h1.543v-9.422l8.27 9.422h1.254v-11.16h-1.5zM-597.785 84.739v-1.392h-10.906v1.392h4.562v9.768h1.781v-9.768zM-587.812 83.347v11.16h10.019v-1.408h-8.215v-3.598h5.434v-1.408h-5.434v-3.354h7.705v-1.392zM-556.393 94.507l-3.215-4.943c1.061-.141 1.826-.475 2.291-.998.467-.521.699-1.232.699-2.123 0-1.002-.303-1.77-.91-2.301-.609-.529-1.615-.795-3.014-.795h-6.602v11.16h1.785v-4.838h3.902l3.037 4.838h2.027zm-8.964-6.281v-3.438h4.541c.494 0 .898.033 1.219.096.318.062.57.162.754.297s.311.301.381.498c.072.201.105.439.105.723 0 .566-.176 1.01-.531 1.336-.352.326-.961.488-1.822.488h-4.647zM-536.242 84.739v-1.392h-10.908v1.392l4.562.006v9.762h1.785l-.002-9.762zM-505.689 83.347h1.779v11.16h-1.779zM-482.617 91.708h-.041l-7.324-8.361h-2.188v11.16h1.522l.007-9.422 8.282 9.422h1.273v-11.16h-1.543zM-459.33 83.347l-3.998 7.554-3.85-7.554h-2.207v11.16h1.496V85.36l.022-.041 4.517 8.977 4.522-8.977.064.041-.013 9.147h1.785v-11.16zM-445.35 83.347v11.16h9.971V93.11l-8.213-.004v-3.607h5.432v-1.4h-5.432v-3.354h7.705v-1.398zM-415.16 91.708h-.059l-7.324-8.361h-2.174v11.16h1.52v-9.422l8.279 9.422h1.254v-11.16h-1.496zM-403.547 83.347v1.398h4.563v9.762h1.777l.006-9.762h4.562v-1.398z"/>
    </g>
    <path d="M-511.092 100.442c-1.211-2.463-9.037-18.293-9.037-18.293l-1.57-3.176-1.57 3.176s-7.797 15.771-9.037 18.289c-.744 1.51-1.121 3.193-1.121 5.008 0 6.467 5.26 11.729 11.729 11.729 6.467 0 11.729-5.262 11.729-11.73-.004-1.809-.379-3.491-1.123-5.003z" fill="#ED1C24"/>
    <g fill="#FFF">
      <path d="M-519.963 100.323a1.8 1.8 0 1 1-3.598 0 1.798 1.798 0 1 1 3.598 0zM-525.25 101.298a1.8 1.8 0 0 1 .656 2.459 1.8 1.8 0 1 1-.656-2.459zM-527.049 106.366a1.797 1.797 0 0 1 2.455.66 1.799 1.799 0 0 1-.656 2.459 1.805 1.805 0 0 1-2.461-.658 1.803 1.803 0 0 1 .662-2.461z"/>
      <circle cx="-521.762" cy="110.46" r="1.799"/>
      <circle cx="-517.371" cy="107.926" r="1.801"/>
      <path d="M-516.471 104.417a1.803 1.803 0 0 1-2.461-.66 1.799 1.799 0 1 1 3.115-1.799 1.798 1.798 0 0 1-.654 2.459z"/>
      <path d="M-512.662 101.216c-1.213-2.463-9.037-18.291-9.037-18.291s-7.797 15.77-9.039 18.289c-.625 1.273-.938 2.719-.938 4.232 0 5.51 4.467 9.977 9.977 9.977 5.512 0 9.977-4.467 9.977-9.977-.001-1.513-.313-2.957-.94-4.23zm-9.139-14.432l4.668 9.766s-1.822-1.098-4.504-1.098c-2.68 0-4.631 1.098-4.631 1.098l4.467-9.766zm.037 26.805a8.196 8.196 0 0 1 0-16.392 8.195 8.195 0 0 1 8.199 8.195 8.196 8.196 0 0 1-8.199 8.197z"/>
    </g>
  </g>
  <path fill="none" stroke="#FFF" stroke-width="2" stroke-miterlimit="10" d="M-1593.817 145.867h435.118v102.821h-435.118z"/>
  <path fill="#ED1C24" d="M-1376.978 144.749h1.438v75.317h-1.438z"/>
  <path d="M-1377.995 220.696c.687-1.39 1.018-2.591 1.018-4.066h1.438c0 1.476.33 2.677 1.018 4.066h-3.474z" fill="#ED1C24"/>
  <g fill="#FFF">
    <path d="M-1545.051 203.353c0 .129.041.235.124.32.084.083.302.143.654.18v.334h-5.734v-.334c.353-.037.57-.097.655-.18a.434.434 0 0 0 .124-.32V190.38c0-.13-.04-.236-.124-.32-.085-.083-.303-.144-.655-.182v-.333h10.188c2.06 0 3.554.375 4.482 1.128.926.75 1.39 1.916 1.39 3.492 0 1.282-.374 2.283-1.126 3.007s-1.702 1.243-2.853 1.56l3.284 4.621c.223.334.492.5.807.5v.334h-5.789v-.334c.408-.018.611-.185.611-.5 0-.037-.074-.166-.223-.391a44.273 44.273 0 0 0-1.294-1.823c-.271-.363-.527-.711-.778-1.045s-.469-.631-.656-.89a8.675 8.675 0 0 1-.36-.53h-2.728v4.679zm4.676-7.627c.817 0 1.377-.154 1.684-.461.306-.305.458-.662.458-1.07 0-.409-.152-.766-.458-1.072-.307-.307-.866-.459-1.684-.459h-4.676v3.062h4.676zM-1507.806 198.843a.874.874 0 0 0-.237-.46c-.121-.12-.319-.182-.599-.182h-5.178v2.59h8.937c.148 0 .259-.051.334-.153.073-.102.129-.328.168-.683h.332v4.761h-.332c-.039-.241-.095-.389-.168-.445-.075-.056-.186-.084-.334-.084h-13.892v-.334c.354-.037.571-.097.653-.18a.436.436 0 0 0 .127-.32V190.38a.433.433 0 0 0-.127-.32c-.082-.083-.299-.144-.653-.182v-.333h13.892c.148 0 .259-.05.334-.153.073-.103.129-.311.168-.627h.332v4.844h-.332c-.039-.314-.095-.523-.168-.627-.075-.1-.186-.152-.334-.152h-8.937v2.312h5.178c.279 0 .478-.061.599-.181a.877.877 0 0 0 .237-.46h.334v4.343h-.334zM-1487.848 198.536c-.037.111-.053.307-.053.584 0 .186.168.395.512.627s.789.45 1.337.654c.546.204 1.174.375 1.878.516a11.06 11.06 0 0 0 2.144.208c1.393 0 2.413-.163 3.063-.487.648-.324.975-.794.975-1.406 0-.334-.284-.57-.85-.709-.568-.14-1.276-.25-2.129-.334-.855-.084-1.775-.177-2.758-.279a13.86 13.86 0 0 1-2.754-.557c-.855-.268-1.564-.658-2.132-1.169-.566-.51-.848-1.21-.848-2.101 0-.705.162-1.346.487-1.922.324-.574.781-1.066 1.365-1.475s1.294-.729 2.129-.961c.836-.23 1.762-.348 2.782-.348.949 0 1.827.061 2.646.182.816.121 1.54.255 2.172.402.629.149 1.159.283 1.586.404.427.12.731.181.918.181a.725.725 0 0 0 .445-.125c.112-.083.214-.181.307-.292l.308.111-1.921 3.87-.335-.169v-.305c0-.168-.181-.338-.544-.516-.36-.178-.82-.334-1.377-.474s-1.179-.255-1.865-.348-1.355-.14-2.004-.14c-1.208 0-2.051.14-2.533.419-.482.278-.724.573-.724.89 0 .315.167.553.499.71.336.158.771.274 1.31.348.54.075 1.151.135 1.837.181.687.047 1.393.117 2.115.209.725.094 1.43.224 2.117.389a6.569 6.569 0 0 1 1.837.74c.537.323.974.75 1.309 1.279.334.528.5 1.193.5 1.99 0 .613-.124 1.216-.376 1.81-.248.594-.677 1.128-1.279 1.601-.604.473-1.41.849-2.421 1.127-1.013.279-2.271.418-3.774.418-1.168 0-2.174-.056-3.019-.167s-1.563-.245-2.158-.403a14.99 14.99 0 0 1-1.405-.432c-.344-.13-.598-.195-.766-.195a.423.423 0 0 0-.293.113 4.496 4.496 0 0 0-.264.25l-.332-.084 2.059-4.955.277.14zM-1448.402 198.843a.867.867 0 0 0-.237-.46c-.121-.12-.319-.182-.599-.182h-5.178v2.59h8.937c.148 0 .259-.051.333-.153.074-.102.131-.328.169-.683h.333v4.761h-.333c-.038-.241-.095-.389-.169-.445-.074-.056-.185-.084-.333-.084h-13.892v-.334c.354-.037.571-.097.653-.18a.433.433 0 0 0 .127-.32V190.38a.43.43 0 0 0-.127-.32c-.082-.083-.299-.144-.653-.182v-.333h13.892c.148 0 .259-.05.333-.153.074-.103.131-.311.169-.627h.333v4.844h-.333c-.038-.314-.095-.523-.169-.627-.074-.1-.185-.152-.333-.152h-8.937v2.312h5.178c.279 0 .478-.061.599-.181a.87.87 0 0 0 .237-.46h.334v4.343h-.334zM-1424.714 203.353c0 .129.04.235.126.32.083.083.3.143.654.18v.334h-5.735v-.334c.352-.037.571-.097.655-.18a.441.441 0 0 0 .123-.32V190.38a.438.438 0 0 0-.123-.32c-.084-.083-.304-.144-.655-.182v-.333h10.187c2.061 0 3.557.375 4.485 1.128.925.75 1.39 1.916 1.39 3.492 0 1.282-.375 2.283-1.127 3.007-.753.724-1.702 1.243-2.854 1.56l3.286 4.621c.223.334.491.5.806.5v.334h-5.791v-.334c.41-.018.612-.185.612-.5 0-.037-.071-.166-.22-.391a49.14 49.14 0 0 0-1.297-1.823c-.27-.363-.527-.711-.777-1.045a42.998 42.998 0 0 1-.656-.89 8.675 8.675 0 0 1-.36-.53h-2.729v4.679zm4.677-7.627c.816 0 1.378-.154 1.683-.461a1.46 1.46 0 0 0 .462-1.07c0-.409-.154-.766-.462-1.072-.305-.307-.866-.459-1.683-.459h-4.677v3.062h4.677zM-1394.177 203.853c.168-.037.276-.073.333-.109.057-.038.084-.085.084-.141 0-.037-.074-.227-.223-.571-.148-.343-.34-.793-.571-1.35s-.506-1.187-.819-1.892c-.316-.705-.638-1.439-.962-2.2-.326-.761-.652-1.513-.988-2.255-.333-.742-.64-1.43-.917-2.061-.278-.631-.516-1.178-.711-1.642s-.33-.788-.404-.975c-.129-.315-.232-.521-.304-.612a.501.501 0 0 0-.337-.168v-.333h5.707v.333c-.224.02-.371.057-.444.112a.266.266 0 0 0-.112.222c0 .057.04.174.126.35.083.176.259.551.527 1.127.271.574.659 1.41 1.171 2.506.51 1.095 1.201 2.588 2.074 4.48l1.99-4.384c.49-1.086.873-1.917 1.141-2.491.27-.576.44-.969.515-1.184.074-.213.112-.357.112-.432 0-.092-.027-.162-.083-.208s-.169-.079-.335-.099v-.333h4.786v.333a1.576 1.576 0 0 0-.263.112c-.064.038-.117.121-.152.251-.037.111-.149.38-.334.807-.188.428-.414.956-.683 1.586-.27.631-.565 1.334-.891 2.102-.326.771-.658 1.556-1.002 2.354-.345.799-.677 1.577-1.003 2.338-.324.762-.612 1.438-.861 2.033a40.683 40.683 0 0 0-.599 1.475c-.151.389-.226.603-.226.64 0 .169.131.251.392.251v.361h-5.734v-.333zM-1365.24 202.989c-.066.186-.111.32-.14.404s-.041.144-.041.181c0 .094.03.163.095.209.065.046.201.069.404.069v.334h-4.926v-.334c.204-.037.352-.097.445-.18.092-.085.186-.236.277-.46.035-.093.13-.345.278-.752.147-.407.345-.923.584-1.544l.81-2.074c.295-.762.593-1.535.889-2.324l.877-2.311c.289-.752.543-1.425.766-2.02.225-.594.402-1.076.543-1.447.139-.37.208-.565.208-.584 0-.092-.059-.156-.178-.195a2.748 2.748 0 0 0-.377-.084v-.333h7.267v.333c-.151.02-.271.047-.365.084-.091.039-.138.131-.138.279 0 .037.087.277.266.724.175.444.403 1.025.681 1.739.279.715.599 1.521.959 2.422.363.899.738 1.818 1.128 2.756.392.938.766 1.852 1.127 2.742.363.891.692 1.688.99 2.394.147.335.272.557.377.669.101.11.234.166.401.166v.334h-5.482v-.334c.351-.018.527-.13.527-.334 0-.018-.047-.143-.139-.375-.094-.233-4.229-10.982-4.229-10.982s-3.821 10.645-3.884 10.828zM-1333.292 203.853c.35-.037.57-.097.653-.18a.435.435 0 0 0 .125-.32v-10.411h-4.786c-.151 0-.261.051-.337.152-.072.103-.129.312-.166.626h-.333v-4.955h.333c.037.316.094.524.166.627.076.104.186.153.337.153h13.751c.146 0 .258-.05.332-.153.076-.103.13-.311.168-.627h.335v4.955h-.335c-.038-.314-.092-.523-.168-.626-.074-.102-.186-.152-.332-.152h-4.789v10.411c0 .129.043.235.125.32.086.083.303.143.655.18v.334h-5.734v-.334zM-1306.53 203.853c.353-.037.571-.097.655-.18a.439.439 0 0 0 .125-.32V190.38a.436.436 0 0 0-.125-.32c-.084-.083-.303-.144-.655-.182v-.333h5.735v.333c-.354.038-.57.099-.654.182a.432.432 0 0 0-.125.32v12.973c0 .129.041.235.125.32.084.083.3.143.654.18v.334h-5.735v-.334zM-1275.398 189.378c1.188 0 2.307.162 3.355.486a8.35 8.35 0 0 1 2.757 1.434 6.938 6.938 0 0 1 1.878 2.34c.463.928.696 2.004.696 3.228 0 1.226-.233 2.302-.696 3.229a6.931 6.931 0 0 1-1.878 2.338c-.791.633-1.708 1.096-2.757 1.393s-2.168.445-3.355.445a12.26 12.26 0 0 1-3.354-.445c-1.049-.297-1.969-.76-2.757-1.393a6.871 6.871 0 0 1-1.878-2.338c-.464-.928-.697-2.004-.697-3.229 0-1.224.233-2.3.697-3.228a6.879 6.879 0 0 1 1.878-2.34c.788-.63 1.708-1.107 2.757-1.434a11.305 11.305 0 0 1 3.354-.486zm0 3.395a5.42 5.42 0 0 0-1.739.278 4.568 4.568 0 0 0-1.447.793 3.824 3.824 0 0 0-1.002 1.281c-.252.511-.377 1.091-.377 1.739 0 .65.125 1.229.377 1.741.25.51.585.937 1.002 1.279.416.345.899.609 1.447.793a5.34 5.34 0 0 0 1.739.279c.613 0 1.193-.093 1.739-.279a4.498 4.498 0 0 0 1.448-.793c.418-.343.753-.77 1.003-1.279.251-.512.375-1.091.375-1.741 0-.648-.124-1.229-.375-1.739a3.804 3.804 0 0 0-1.003-1.281 4.595 4.595 0 0 0-1.448-.793 5.412 5.412 0 0 0-1.739-.278zM-1250.34 190.38a.432.432 0 0 0-.125-.32c-.083-.083-.302-.144-.652-.182v-.333h6.706v.333c-.313.02-.522.062-.626.127-.102.064-.152.143-.152.236 0 .037.12.203.363.5.239.297.557.668.945 1.113.39.446.831.943 1.322 1.49s.989 1.095 1.489 1.642c.502.548.983 1.067 1.448 1.56l1.196 1.266v-7.432c0-.314-.193-.482-.585-.502v-.333h5.094v.333c-.35.038-.571.099-.652.182a.425.425 0 0 0-.126.32v12.973c0 .129.04.235.126.32.081.083.303.143.652.18v.334h-5.287v-.334c.258 0 .43-.027.514-.084a.253.253 0 0 0 .125-.222.391.391 0 0 0-.082-.209c-.055-.083-.178-.228-.363-.432s-.458-.496-.821-.876c-.36-.38-.84-.891-1.434-1.531s-1.327-1.438-2.198-2.395c-.872-.955-1.92-2.119-3.147-3.494v8.742c0 .129.043.235.127.32.081.083.302.143.652.18v.334h-5.286v-.334c.351-.037.569-.097.652-.18a.435.435 0 0 0 .125-.32V190.38zM-1216.26 198.536c-.038.111-.056.307-.056.584 0 .186.169.395.514.627.343.232.788.45 1.336.654s1.175.375 1.88.516c.703.139 1.419.208 2.143.208 1.391 0 2.412-.163 3.062-.487s.974-.794.974-1.406c0-.334-.281-.57-.849-.709-.565-.14-1.275-.25-2.129-.334-.853-.084-1.771-.177-2.757-.279a13.856 13.856 0 0 1-2.755-.557c-.854-.268-1.563-.658-2.13-1.169-.563-.51-.85-1.21-.85-2.101 0-.705.163-1.346.488-1.922a4.507 4.507 0 0 1 1.364-1.475c.585-.408 1.294-.729 2.129-.961.835-.23 1.764-.348 2.783-.348.948 0 1.828.061 2.645.182s1.542.255 2.173.402c.631.149 1.159.283 1.586.404.427.12.734.181.92.181a.73.73 0 0 0 .445-.125c.109-.083.212-.181.306-.292l.305.111-1.92 3.87-.333-.169v-.305c0-.168-.181-.338-.543-.516-.363-.178-.822-.334-1.378-.474-.559-.14-1.18-.255-1.866-.348s-1.354-.14-2.005-.14c-1.206 0-2.05.14-2.532.419-.483.278-.723.573-.723.89 0 .315.166.553.499.71.335.158.772.274 1.31.348.537.075 1.149.135 1.837.181.687.047 1.392.117 2.118.209.721.094 1.428.224 2.113.389.687.168 1.3.416 1.837.74.539.323.976.75 1.308 1.279.336.528.501 1.193.501 1.99 0 .613-.124 1.216-.373 1.81-.252.594-.679 1.128-1.281 1.601-.604.473-1.413.849-2.423 1.127-1.011.279-2.27.418-3.771.418-1.17 0-2.177-.056-3.021-.167a17.308 17.308 0 0 1-2.156-.403 15.219 15.219 0 0 1-1.406-.432c-.343-.13-.598-.195-.765-.195a.417.417 0 0 0-.292.113 4.495 4.495 0 0 0-.266.25l-.333-.084 2.06-4.955.277.14z"/>
  </g>
  <g fill="#FFF">
    <path d="M-1388.197 173.839a.634.634 0 0 0 .086-.33c0-.262-.164-.533-.564-.938l-9.211-9.602v10.288c0 .204.059.413.197.581h-2.481a.95.95 0 0 0 .175-.581v-12.639a.953.953 0 0 0-.175-.581h3.419a.791.791 0 0 0-.076.359c0 .281.195.594.679 1.076l8.708 9.041v-9.896a.91.91 0 0 0-.205-.581h2.488a.958.958 0 0 0-.173.581v12.639c0 .233.061.431.173.581h-3.04zM-1360.918 173.923c-.979 0-1.991-.137-3.012-.404a8.6 8.6 0 0 1-2.761-1.273 7.087 7.087 0 0 1-2.022-2.194c-.515-.868-.774-1.914-.774-3.112 0-1.197.26-2.245.774-3.111a7.091 7.091 0 0 1 2.022-2.195 9.364 9.364 0 0 1 2.771-1.318 10.878 10.878 0 0 1 3.002-.443c.976 0 1.985.15 3.001.443a9.364 9.364 0 0 1 2.771 1.318 7.068 7.068 0 0 1 2.023 2.195c.516.866.776 1.914.776 3.111 0 1.198-.261 2.244-.776 3.112a7.074 7.074 0 0 1-2.023 2.194 8.565 8.565 0 0 1-2.76 1.273 11.91 11.91 0 0 1-3.012.404zm0-12.332c-.744 0-1.499.119-2.242.354a6.89 6.89 0 0 0-2.031 1.023 5.453 5.453 0 0 0-1.491 1.674c-.388.673-.583 1.445-.583 2.297s.195 1.625.586 2.297a5.39 5.39 0 0 0 1.488 1.674 6.975 6.975 0 0 0 2.031 1.023 7.457 7.457 0 0 0 2.242.354c.747 0 1.5-.119 2.243-.354a6.958 6.958 0 0 0 2.028-1.023 5.471 5.471 0 0 0 1.494-1.674c.387-.674.583-1.446.583-2.297 0-.85-.196-1.623-.583-2.297a5.462 5.462 0 0 0-1.494-1.674 6.885 6.885 0 0 0-2.028-1.023 7.442 7.442 0 0 0-2.243-.354z"/>
  </g>
  <g fill="#FFF">
    <path d="M-1505.078 221.558v11.162h9.996v-1.402h-8.213v-3.606h5.434v-1.418h-5.434v-3.337h7.704v-1.399zM-1474.88 229.919h-.043l-7.311-8.361h-2.212v11.162h1.544v-9.423l8.269 9.423h1.254v-11.162h-1.501zM-1452.344 222.952v-1.394h-10.907v1.394h4.563v9.768h1.782v-9.768zM-1442.372 221.558v11.162h10.019v-1.41h-8.213v-3.598h5.433v-1.406h-5.433v-3.354h7.705v-1.394zM-1410.951 232.72l-3.216-4.944c1.061-.14 1.826-.475 2.292-.999.467-.521.699-1.23.699-2.122 0-1.003-.304-1.771-.91-2.302-.609-.529-1.615-.795-3.015-.795h-6.602v11.162h1.786v-4.838h3.902l3.036 4.838h2.028zm-8.965-6.283V223h4.541c.494 0 .897.032 1.219.097.317.062.569.16.753.297.185.133.312.299.381.496.072.201.106.441.106.725 0 .566-.176 1.01-.531 1.335-.352.327-.961.487-1.823.487h-4.646zM-1390.802 222.952v-1.394h-10.907v1.394l4.563.005v9.763h1.785l-.002-9.763zM-1360.248 221.558h1.779v11.162h-1.779zM-1337.176 229.919h-.042l-7.324-8.361h-2.187v11.162h1.522l.008-9.423 8.281 9.423h1.273v-11.162h-1.543zM-1313.89 221.558l-3.997 7.554-3.85-7.554h-2.206v11.162h1.495v-9.148l.021-.042 4.519 8.978 4.521-8.978.065.042-.014 9.148h1.785v-11.162zM-1299.908 221.558v11.162h9.97v-1.399l-8.212-.003v-3.608h5.431v-1.398h-5.431v-3.355h7.704v-1.399zM-1269.719 229.919h-.058l-7.325-8.361h-2.173v11.162h1.518v-9.423l8.28 9.423h1.253v-11.162h-1.495zM-1258.105 221.558v1.399h4.562v9.763h1.776l.006-9.763h4.563v-1.399z"/>
  </g>
  <path d="M-1365.65 238.654c-1.212-2.464-9.037-18.294-9.037-18.294l-1.57-3.175-1.57 3.175s-7.797 15.771-9.037 18.291c-.744 1.51-1.121 3.193-1.121 5.006 0 6.468 5.26 11.729 11.729 11.729 6.467 0 11.728-5.261 11.728-11.729-.004-1.809-.378-3.492-1.122-5.003z" fill="#ED1C24"/>
  <g>
    <path d="M-1374.521 238.534c0 .994-.804 1.803-1.801 1.803-.994 0-1.798-.809-1.798-1.803a1.8 1.8 0 1 1 3.599 0zM-1379.81 239.51a1.8 1.8 0 1 1-1.803 3.117 1.8 1.8 0 0 1 1.803-3.117zM-1381.608 244.579a1.8 1.8 0 1 1-.661 2.459 1.797 1.797 0 0 1 .661-2.459zM-1378.12 248.673a1.799 1.799 0 1 1 3.599 0 1.8 1.8 0 0 1-3.599 0zM-1372.83 247.697a1.8 1.8 0 1 1 1.796-3.12 1.8 1.8 0 0 1-1.796 3.12zM-1371.03 242.628a1.8 1.8 0 0 1-1.8-3.118 1.796 1.796 0 0 1 2.454.659 1.799 1.799 0 0 1-.654 2.459z"/>
    <path d="M-1367.221 239.428c-1.214-2.463-9.037-18.29-9.037-18.29s-7.797 15.769-9.039 18.287c-.625 1.274-.938 2.719-.938 4.232 0 5.511 4.467 9.978 9.978 9.978s9.977-4.467 9.977-9.978c-.002-1.513-.315-2.956-.941-4.229zm-9.138-14.433l4.668 9.767s-1.823-1.097-4.504-1.097c-2.68 0-4.631 1.097-4.631 1.097l4.467-9.767zm.037 26.807c-4.523 0-8.196-3.672-8.196-8.199a8.198 8.198 0 0 1 8.196-8.195 8.195 8.195 0 0 1 8.198 8.195 8.197 8.197 0 0 1-8.198 8.199z"/>
  </g>
</svg>